<svg width="415" height="312" viewBox="0 0 415 312" fill="none" xmlns="http://www.w3.org/2000/svg">
<path fill-rule="evenodd" clip-rule="evenodd" d="M357.871 278.351C359.949 279.423 361.891 279.422 363.935 280.256C365.964 281.084 366.492 284.516 368.227 284.926C360.186 285.774 352.266 287.571 344.127 286.678C344.832 283.799 343.567 280.853 345.262 278.152C349.794 273.853 352.741 275.705 357.871 278.351ZM323.916 80.5032C324.02 82.5271 324.17 83.3315 325.603 84.6372C326.726 85.6601 327.358 84.1351 327.464 86.133C327.526 87.2855 326.331 87.864 325.869 88.7956C323.564 93.4366 325.155 99.4308 326.287 104.054C328.584 113.428 334.195 123.621 330.242 133.149C329.843 134.11 329.523 136.192 328.753 136.928C327.738 136.39 326.997 136.625 326.529 137.633C326.248 137.949 325.968 138.265 325.688 138.581C323.911 140.228 322.02 140.84 319.662 139.964C314.907 138.2 314.121 132.664 314.096 128.307C314.068 123.504 315.088 118.473 316.179 113.794C316.705 111.541 317.514 108.926 316.008 106.8C314.585 104.792 312.828 105.924 311.428 105.028C309.937 104.074 312.084 97.0636 310.615 95.2046C308.05 91.9586 307.156 99.8992 307.115 101.521C307.071 103.297 307.167 105.37 308.002 106.981C308.658 108.246 310.794 109.356 311.161 110.633C311.503 111.827 310 114.927 309.768 116.208C309.411 118.182 309.286 120.198 309.184 122.198C308.837 128.956 309.895 136.068 314.535 141.312C316.57 143.611 320.018 146.223 323.244 145.804C326.092 145.434 328.953 143.893 331.609 142.845C333.395 149.723 336.078 156.384 338.936 162.879C341.421 168.525 343.756 174.308 346.366 179.885C351.867 191.64 360.795 201.653 367.771 212.522C374.506 223.015 378.282 235.057 379.188 247.444C379.402 250.373 378.549 254.382 379.229 257.121C379.868 259.689 380.428 260.804 380.01 263.604C379.546 266.716 378.646 269.586 379.032 272.752C379.375 275.561 380.711 279.747 379.251 282.349C377.498 280.477 375.748 279.595 374.685 277.097C373.605 274.562 374.03 272.479 371.582 271.365C369.491 270.413 367.991 270.62 366.146 269.062C363.904 267.169 362.377 264.856 361.272 262.146C359.387 257.523 359.114 252.51 360.708 247.761C361.986 243.954 365.718 236.827 370.95 239.378C370.173 237.778 369.656 236.038 368.173 234.998C366.882 234.093 364.951 233.798 363.509 232.768C361.897 231.617 360.072 230.389 358.273 229.547C357.574 229.22 356.913 229.056 356.191 228.833C355.326 228.565 353.684 228.757 353.577 228.741C350.486 228.273 347.04 226.781 345.152 224.534C343.732 222.842 342.476 221.263 341.392 219.327C339.984 216.815 339.442 216.967 336.741 216.37C332.815 215.504 330.325 214.913 327.185 211.993C323.702 208.755 321.154 204.721 318.605 200.748C317.112 198.42 315.8 198.278 313.367 197.348C311.952 196.808 309.993 194.39 308.705 194.21C308.333 194.158 306.553 194.971 305.95 195.068C304.874 195.242 303.939 195.211 302.861 195.098C300.386 194.837 298.199 194.18 296.535 192.239C291.412 186.262 289.849 172.172 296.864 167.087C298.201 166.119 300.063 165.673 300.852 164.064C301.756 162.217 301.344 158.739 301.272 156.792C301.19 154.57 301.085 152.152 300.754 149.962C300.602 148.955 300.488 148.532 300.079 147.524C299.266 145.526 299.027 145.816 297.353 145.336C294.965 144.651 293.885 144.92 292.421 142.648C291.253 140.835 290.706 138.551 290.6 136.408C290.501 134.408 291.401 132.56 290.65 130.749C289.55 128.099 287.51 126.093 286.616 123.192C285.862 120.75 283.916 115.297 285.835 113.043C286.694 112.033 288.221 111.886 289.073 110.534C290.558 108.181 291.158 106.894 293.362 105.039C294.988 103.67 296.549 101.631 298.509 100.794C300.437 99.9707 302.256 101.295 303.821 100.932C305.526 100.536 305.078 96.5704 305.551 94.7845C306.189 92.3767 307.558 89.8664 309.216 87.9875C309.77 87.3599 310.46 87.2392 310.891 86.4048C311.475 85.275 311.243 83.665 311.698 82.4296C312.242 80.9533 313.561 78.4118 315.036 77.6026C319.344 75.2382 320.638 81.3307 323.916 80.5032ZM313.833 255.342C314.441 256.984 314.105 259.623 314.805 261.036C315.362 262.162 317.6 262.876 318.697 264.219C321.046 267.094 321.941 271.711 321.088 275.261C318.213 274.55 316.291 274.095 313.368 274.47C313.073 268.036 313.349 261.774 313.833 255.342ZM278.305 260.191C280.261 262.378 281.231 264.954 280.948 267.877C280.848 268.917 280.53 270.376 280.225 271.375C279.889 272.472 278.219 274.526 278.867 275.113C277.042 275.004 274.899 275.217 273.584 274.034C272.404 272.972 271.578 270.236 271.099 268.786C272.02 266.943 272.942 265.1 273.863 263.257C274.463 264.211 276.225 266.702 277.679 265.905C278.775 265.305 277.89 261.404 278.305 260.191ZM346.951 243.15C349.189 245.235 349.954 248.994 349.84 251.912C349.877 255.933 348.488 263.982 343.273 264.252C339.081 264.469 334.611 258.452 334.139 254.733C333.623 250.655 334.968 240.905 340.3 240.067C342.263 239.758 345.536 241.832 346.951 243.15ZM309.487 248.35C309.576 250.986 309.62 253.522 309.411 256.149C309.237 258.346 309.817 260.94 309.327 263.043C306.226 259.565 302.141 255.779 302.265 250.667C302.382 245.835 306.376 246.247 309.487 248.35ZM278.235 190.254L280.831 193.106C280.905 197.113 280.826 201.074 282.043 204.938C283.324 209.003 285.47 212.921 287.594 216.597C291.724 223.741 292.709 230.479 293.206 238.65C285.44 235.162 281.204 223.243 278.642 215.788C277.285 211.841 275.878 207.891 274.598 203.919C273.336 200.003 271.105 194.885 272.573 190.759C275.395 192.838 276.615 193.91 278.235 190.254ZM326.633 218.377C330.425 221.4 330.712 226.026 332.073 230.254C331.288 230.883 330.426 231.436 329.717 232.153C329.279 232.595 328.247 234.407 327.91 234.593C326.567 235.338 325.393 234.382 324.081 233.181C321.497 230.816 319.884 225.795 320.005 222.323C320.146 218.268 323.006 215.485 326.633 218.377ZM379.694 200.611C384.623 203.442 383.337 211.273 382.722 215.691C382.337 218.46 383.192 221.277 383.132 223.911C383.066 226.884 381.527 226.268 380.542 228.113C379.688 225.875 378.12 223.181 377.763 220.835L377.197 219.35C377.677 219.157 377.932 218.822 377.961 218.344C378.163 217.207 378.16 216.047 378.223 214.888C378.484 210.096 378.846 205.336 379.694 200.611ZM304.591 205.9C304.045 207.985 303.646 211.909 300.581 210.7C298.162 209.745 297.578 205.892 297.573 203.744C297.569 201.981 297.858 198.741 300.319 198.636C303.339 198.506 304.417 203.863 304.591 205.9ZM281.259 147.845C279.22 151.118 277.805 155.954 278.768 159.83C279.78 163.9 282.925 164.885 285.722 161.891C288.031 165.534 283.298 172.023 279.066 168.559C278.152 167.811 277.538 166.378 276.406 165.911C275.479 165.529 274.658 166.048 273.711 165.832C270.799 165.169 269.699 162.302 268.555 159.895C268.869 157.933 269.202 155.989 269.625 154.046C269.85 153.014 270.085 151.983 270.313 150.95C270.701 149.197 270.58 149.415 271.849 148.546C275.194 146.255 277.495 146.142 281.259 147.845ZM282.986 149.612L285.434 155.067C284.1 154.745 282.648 158.756 281.777 159.537C281.369 156.2 282.345 152.858 282.986 149.612ZM281.63 130.98C283.843 131.914 284.283 135.964 284.361 137.923C283.753 139.985 283.185 142.623 280.613 141.17C278.897 140.201 278.162 137.008 278.104 135.264C278.03 133.077 278.849 129.805 281.63 130.98Z" fill="#F09675"/>
<path d="M100.711 104.327C104.238 100.592 107.2 93.3487 112.846 92.4382C115.025 91.5832 117.588 92.1673 119.886 92.1673C121.301 92.1673 121.601 92.8434 122.225 93.9342C122.861 95.0478 123.755 96.1805 124.108 97.4158C124.382 98.3754 125.849 99.4139 125.966 100.352C126.043 100.964 127.43 102.739 127.954 103.158C130.169 104.93 131.696 107.198 134.566 108.121C137.395 109.03 140.449 110.004 143.504 110.173C144.905 110.251 146.429 110.641 147.804 110.641C149.047 110.641 151.184 110.662 152.274 110.056C152.933 109.69 153.704 109.729 154.378 109.355C154.955 109.034 155.935 108.807 156.6 108.77C158.134 108.685 159.556 107.913 160.692 107.029C161.738 106.216 162.333 105.012 163.199 104.145C163.35 103.994 164.006 103.252 164.07 103.028C164.178 102.649 164.62 101.609 164.836 101.339C168.164 97.1793 166.889 91.265 166.889 86.2043C166.889 85.5341 166.421 84.9245 166.421 84.3336C166.421 83.6396 166.614 83.043 166.655 82.3459C166.714 81.3359 169.12 81.1238 169.799 80.9298C171.045 80.5738 172.333 79.8479 173.67 79.7736C174.361 79.7352 175.069 79.3059 175.775 79.3059C176.337 79.3059 177.618 79.2401 178.113 79.0201C179.506 78.4011 181.6 78.4275 183.128 78.1497C184.612 77.8798 186.18 77.9028 187.701 77.9028C190.476 77.9028 193.186 78.6372 195.743 79.7736C196.681 80.1908 197.91 81.1169 198.925 81.1767C199.982 81.2388 201.691 81.6588 202.485 82.2939C202.969 82.681 203.892 82.9091 204.46 83.2813C205.322 83.8461 206.691 84.7082 207.695 84.9312C208.705 85.1556 209.799 86.262 210.722 86.7889C211.422 87.1892 211.863 87.8967 212.605 88.3089C213.028 88.5437 213.731 88.8713 214.073 89.1793C215.166 90.1631 217.984 89.883 219.4 90.1147C220.782 90.3409 222.19 90.6186 223.583 90.7513C227.102 91.0864 230.318 93.1027 233.95 93.1027C235.958 93.1027 238.219 92.758 240.186 93.1157C241.429 93.3417 242.95 93.061 243.875 93.9861C244.993 95.1041 244.759 96.58 244.759 98.1304C244.759 98.4716 245.079 99.8167 245.279 100.066C245.62 100.493 245.46 101.316 245.46 101.872C245.46 103.507 244.759 105.001 244.759 106.666C244.759 108.056 244.525 109.426 244.525 110.758C244.525 111.964 244.97 114.2 244.473 115.318C243.965 116.462 243.356 118.376 243.356 119.579C243.356 120.844 243.02 122.115 242.42 123.165C242.036 123.837 241.619 124.415 241.147 125.022C240.203 126.236 239.076 126.075 237.432 126.075C236.113 126.075 231.697 126.709 230.611 125.841C229.816 125.204 231.089 123.09 230.144 122.333C228.97 121.394 228.061 121.866 226.753 121.866C224.974 121.866 223.27 121.632 221.478 121.632H211.787C210.275 121.632 203.909 120.816 203.602 123.269C203.538 123.786 202.289 125.722 201.848 126.075C201.477 126.372 201.384 127.254 200.978 127.66C200.63 128.008 200.163 129.063 199.978 129.582C199.078 132.101 197.558 134.569 196.236 136.948C195.23 138.76 193.547 140.761 193.547 142.912C193.547 146.12 192.91 149.508 193.794 152.603C194.284 154.319 194.619 156.451 195.366 158.111C196.056 159.644 196.09 161.469 196.821 163.022C197.513 164.493 197.755 166.189 197.979 167.767L198.003 167.933C198.152 168.972 198.48 170.077 198.705 171.09C198.859 171.783 198.927 172.802 199.211 173.441C200.325 175.946 202.078 177.703 204.668 178.443C206.737 179.034 206.738 179.782 208.097 181.444C208.781 182.28 209.223 183.345 209.461 184.419C210.133 187.439 209.515 191.213 208.097 193.89C207.471 195.073 207.037 196.202 206.175 197.28C205.154 198.556 203.005 198.832 202.147 200.203C201.542 201.172 199.549 202.117 198.575 202.659C197.314 203.359 196.077 204.162 194.82 204.88C192.373 206.278 189.971 208.439 187.207 209.206C185.745 209.613 184.035 210.493 182.504 210.493C180.976 210.493 179.801 211.428 178.347 211.428C177.798 211.428 177.226 211.865 176.71 211.896C175.393 211.973 174.248 212.206 172.891 212.012C171.583 211.826 170.191 211.935 168.902 211.649C168.388 211.534 167.698 211.226 167.123 211.194C161.53 210.883 156.215 209.184 150.844 207.92C148.748 207.427 146.608 207.099 144.44 206.985C143.73 206.948 142.918 206.543 142.283 206.517C141.405 206.482 140.795 205.816 139.88 205.816C138.724 205.816 137.54 204.88 136.372 204.88C135.834 204.88 134.384 204.459 133.969 204.127C132.95 203.311 132.046 203.477 130.877 203.477C130.28 203.477 129.641 203.774 129.058 203.191C128.298 202.432 127.693 201.625 127.018 200.801C126.422 200.072 125.498 198.859 125.252 197.995C125.045 197.271 124.062 196.645 123.68 195.994C122.353 193.739 120.268 191.435 117.898 190.382C115.448 189.293 114.315 187.279 112.455 185.419C110.5 183.465 110.516 180.503 111.481 178.092C111.898 177.05 112.212 175.806 112.754 174.831C113.07 174.262 113.533 173.748 113.572 173.077C113.59 172.768 114.178 172.006 114.326 171.674C114.571 171.123 114.975 170.279 114.975 169.674C114.975 168.546 114.682 167.029 114.988 165.958C115.077 165.649 114.465 164.701 114.274 164.295C113.967 163.644 113.818 163.091 113.455 162.438C113.039 161.688 113.301 160.463 112.819 159.8C112.217 158.973 111.667 157.425 111.234 156.423C110.965 155.8 110.219 155.123 110.078 154.487C109.752 153.019 109.105 151.333 108.48 149.927C107.899 148.62 106.38 148.888 105.622 147.939C105.193 147.403 103.446 149.764 103.166 150.044C101.639 151.571 100.782 153.944 100.23 155.877C99.8461 157.221 98.5797 156.904 97.6709 156.423C97.1864 156.166 96.6437 155.636 96.1509 155.526C95.7107 155.428 94.7826 155.052 94.449 154.786C93.6536 154.149 92.3561 153.906 91.474 153.201C90.0677 152.076 88.7082 151.323 87.3817 150.057C85.8085 148.555 84.5559 146.867 83.0556 145.367C82.0167 144.328 80.1645 143.624 79.431 142.34C78.9154 141.438 77.5571 140.674 76.8068 139.924C75.6968 138.814 74.9382 137.713 74.2865 136.247C73.928 135.44 72.4039 133.631 73.1692 132.674C73.9729 131.67 74.6444 130.67 75.9234 130.102C77.1853 129.541 78.516 129.831 79.7688 129.115C80.8113 128.519 81.3309 127.5 82.0553 126.594C82.2988 126.29 82.3036 125.893 82.471 125.516C82.6477 125.119 82.9579 125.607 83.1725 125.607C83.6995 125.607 84.1349 124.411 84.4587 124.087C85.3757 123.17 85.8087 121.487 86.7971 120.696C87.6007 120.053 87.9835 118.966 88.8757 118.371C89.2894 118.095 89.7504 117.389 90.006 116.955C91.0266 115.22 92.4098 113.66 93.9164 112.304C95.557 110.827 96.7644 109.166 98.2425 107.601C99.1703 106.619 99.7614 105.333 100.711 104.327Z" fill="#BADDD8"/>
<path fill-rule="evenodd" clip-rule="evenodd" d="M265.055 83.6078C264.144 84.0185 265.884 87.0877 266.154 87.6508C266.861 89.1206 267.722 92.1577 269.394 91.3216C267.948 88.7505 266.502 86.1789 265.055 83.6078ZM51.0577 261.685C49.8386 261.144 48.2082 265.805 47.991 266.752C47.3851 269.391 47.8921 271.163 49.9991 272.869C49.1269 269.098 50.1717 265.342 51.0577 261.685ZM332.465 62.0595C330.948 60.0867 328.758 56.424 325.695 58.363C324.486 59.1292 323.555 61.5849 322.809 62.7846C321.637 64.668 320.503 66.4811 319.611 68.5087C321.126 67.8847 322.019 66.5278 323.373 65.786C324.298 65.2794 325.142 65.2306 326.033 64.8614C328.004 64.0456 330.702 63.2457 332.465 62.0595ZM85.2814 256.43C86.1017 259.648 86.8603 262.857 87.495 266.117C87.9242 268.323 89.3665 271.439 88.614 273.597C90.5637 273.335 92.5135 273.072 94.4633 272.809C93.0168 269.51 92.2557 265.989 91.8261 262.424C91.5631 260.243 91.9003 259.621 90.2606 258.407C88.9909 257.467 86.7554 257.015 85.2814 256.43ZM74.4971 133.246C78.2458 137.008 81.5245 141.295 85.5083 144.8C87.5785 146.621 89.7005 148.391 91.8249 150.148C93.6264 151.637 96.4912 154.921 98.8358 155.376C99.1255 154.177 99.8108 152.211 99.6273 150.98C100.311 150.271 100.099 149.753 98.9902 149.426C98.3117 148.903 97.641 148.371 96.9768 147.83C94.3709 145.65 91.9048 143.281 89.4354 140.949C86.9807 138.631 84.71 136.206 82.579 133.587C81.4564 132.207 80.7999 130.825 78.9587 130.419C76.7715 129.938 76.0436 131.647 74.4971 133.246ZM149.42 272.91C149.314 274.954 154.329 276.206 155.852 276.329C159.97 276.66 162.645 274.85 164.062 271.28C167.012 263.849 171.736 257.302 173.712 249.489C174.298 247.17 174.805 246.115 172.717 244.934C171.86 244.449 169.628 243.369 168.696 243.986C167.809 244.573 167.083 247.214 166.512 248.174C165.607 249.699 164.577 251.149 163.594 252.625C158.994 259.527 154.359 266.249 149.42 272.91ZM89.9092 170.576L109.161 181.611C109.964 178.832 110.333 175.936 111.086 173.136C111.622 171.145 113 168.334 112.913 166.587C112.783 163.978 110.767 160.515 109.889 158.029C108.794 154.93 107.699 151.831 106.604 148.732C105.121 150.154 103.413 151.146 103.395 152.999C103.385 154.057 104.089 154.718 103.681 155.917C103.394 156.758 102.176 157.876 101.588 158.501C99.8688 160.329 99.9227 160.42 98.1164 158.711C95.3808 162.666 92.6448 166.621 89.9092 170.576ZM111.09 222.315C111.365 219.656 111.719 217.107 112.316 214.499C112.682 212.896 114.231 209.605 113.722 208.095C113.347 206.986 111.122 206.021 110.255 205.417C107.747 203.671 105.298 201.833 102.815 200.051C100.638 198.488 98.4285 196.963 96.2923 195.344C94.3137 193.845 92.8203 191.98 90.4259 191.338C88.3311 190.775 85.6729 191.142 83.503 191.07C80.5912 190.973 77.6343 190.941 74.7252 191.083C64.9626 191.562 54.0259 190.878 44.6337 193.607C40.1947 194.897 37.3331 195.656 34.8516 199.871C31.9819 204.746 29.5299 209.811 27.4424 215.076C27.1376 215.845 26.4487 216.954 26.4743 217.795C26.5252 219.399 27.0979 219.029 28.6327 219.944C30.2911 220.932 31.9166 222.106 33.5008 223.219C36.2174 225.127 39.59 227.12 42.4083 228.609C45.7992 230.399 49.2153 232.005 52.6646 233.809C54.8502 234.951 57.1124 235.886 59.2563 237.141C61.5838 238.505 64.1897 238.894 66.6988 239.958C74.4679 243.256 81.9869 246.303 89.6109 250.065C97.0526 253.737 104.58 256.84 112.194 260.079C122.034 264.264 131.777 268.136 142.04 271.03C142.791 271.242 144.371 271.99 145.113 271.956C146.7 271.883 147.059 270.72 148.012 269.411C149.886 266.837 151.69 264.214 153.482 261.583C157.368 255.875 161.168 250.104 165.352 244.609C153.496 241.292 142.502 235.174 132.08 228.895C131.636 230.145 131.283 232.914 129.86 233.332C128.101 233.85 126.824 231.407 126.035 230.284C125.289 232.146 124.013 238.427 121.625 238.29C118.325 238.1 118.908 232.894 118.497 230.829C116.678 233.252 114.57 236.038 112.098 232.312C110.385 229.729 110.575 225.195 111.09 222.315ZM248.461 192.629C246.932 192.15 245.413 191.724 243.918 191.188C243.524 190.352 242.872 190.098 241.959 190.427C241.212 190.494 240.485 190.402 239.779 190.148C236.655 189.613 233.195 188.919 230.211 188.016C227.553 187.212 225.047 186.502 222.346 185.898C220.743 185.54 213.6 183.514 212.545 184.706C212.22 185.073 212.778 189.52 212.7 190.312C212.56 191.721 212.491 194.042 211.6 195.215C211.259 195.665 209.958 196.164 209.488 196.514C207.96 197.653 206.549 199.068 205.029 200.249C201.712 202.826 198.48 205.501 195.095 207.994C192.703 209.756 189.964 210.628 187.307 211.908C189.198 212.248 192.897 210.424 194.806 209.858C197.277 209.125 199.703 208.311 202.231 207.64C207.415 206.264 212.725 204.71 217.993 203.246C221.229 202.346 224.646 201.409 227.783 200.218C229.174 199.689 230.266 198.461 231.186 199.711C231.919 200.709 231.031 202.023 230.468 202.763C227.179 207.077 218.248 208.127 213.467 209.917C208.072 211.936 202.749 214.063 197.194 215.482C190.706 217.139 183.664 218.407 177.619 221.317C172.603 223.731 166.921 224.667 161.589 226.084C156.581 227.414 150.642 227.681 145.909 229.939C147.953 231.558 150.978 232.402 153.361 233.49C156.278 234.823 159.226 236.038 162.111 237.449C163.339 238.05 164.624 238.943 165.867 239.442C167.444 240.077 167.242 239.742 168.871 239.613C171.407 239.414 174.828 238.957 176.888 240.807C179.373 243.04 177.798 245.485 178.163 248.217C178.414 250.089 178.541 249.789 180.615 250.075C182.524 250.338 184.432 250.644 186.315 251.053C188.64 251.559 191.02 252.406 193.284 253.137C196.796 254.27 197.178 255.603 200.838 254.141C211.263 249.976 222.045 246.552 232.537 242.611C237.369 240.796 242.222 237.295 246.771 234.664C252.607 231.289 257.884 227.638 261.835 222.019C263.636 219.458 265.514 215.132 265.136 211.952C264.797 209.109 262.699 205.948 261.346 203.503C259.618 200.381 258.097 199.17 255.454 197.096C253.617 195.654 250.778 192.61 248.461 192.629ZM132.361 216.792C132.522 218.362 131.607 224.832 132.514 225.828C134.064 227.53 137.866 225.543 139.338 225.036C144.117 223.389 149.671 223.75 154.538 222.446C159.259 221.181 163.876 219.541 168.624 218.253C171.171 217.561 173.588 216.477 176.093 215.654C178.881 214.737 181.994 214.234 184.58 212.855C184.26 212.058 173.07 213.976 171.799 214.079C167.382 214.439 163.223 213.756 158.87 212.954C149.267 211.183 140.219 206.985 130.741 204.262C131.185 208.643 143.487 209.516 142.021 214.601C141.612 216.018 136.109 218.335 134.289 217.446C130.591 215.639 135.115 213.095 136.958 212.461C134.152 210.849 131.467 209.099 128.906 207.112C126.165 204.985 124.985 202.001 123.515 198.921C120.444 192.483 113.175 188.738 107.528 184.73C101.423 180.396 94.922 176.712 88.8202 172.388C87.7313 171.616 87.2226 171.97 86.8401 170.561C86.4307 169.051 87.9347 167.134 88.6646 165.983C90.5832 162.956 92.8179 160.092 95.3524 157.558C92.0839 155.328 88.5532 153.488 85.4881 150.964C82.3812 148.405 79.8102 145.282 77.0693 142.353C72.6908 151.903 66.5541 160.761 61.735 170.127C59.8314 173.827 58.8251 179.422 61.72 183.007C64.7664 186.779 70.4472 185.311 74.7475 185.511C79.2862 185.722 83.4264 186.237 87.9031 187.528C89.9283 188.112 91.7718 187.939 93.7184 188.877C96.0013 189.976 98.2465 191.388 100.418 192.692C104.69 195.254 108.68 198.462 112.713 201.387C114.367 202.586 123.338 209.696 116.243 208.598C116.243 215.251 115.08 222.065 114.47 228.686C116.152 226.672 117.352 224.624 118.37 222.204C118.976 220.765 118.984 217.091 121.001 217.962C124.037 219.271 121.673 228.897 121.673 231.5C122.425 230.043 122.952 228.474 123.493 226.931C123.903 225.761 124.416 222.445 125.272 221.66C128.137 219.035 128.539 226.195 128.539 227.689C129.467 225.05 129.637 222.233 129.731 219.444C129.767 218.344 129.496 216.632 129.773 215.568C130.234 213.793 130.18 213.909 132.033 213.159C132.142 214.37 132.252 215.581 132.361 216.792ZM220.875 272.939C221.102 275.19 221.971 276.819 220.494 278.844C223.348 278.639 226.158 278.388 229.017 278.461C231.312 278.519 234.745 279.045 236.886 278.06C237.759 277.658 238.055 278.349 238.504 277.582C238.93 276.854 237.929 274.435 237.809 273.835C237.232 270.955 236.951 268.001 236.426 265.104C236.066 263.113 235.008 259.196 236.338 257.314C238.294 254.545 239.155 258.446 239.665 260.178C241.343 265.884 241.246 271.303 241.246 277.165C243.774 277.165 247.094 276.059 249.532 275.391C252.895 274.47 256.486 273.524 259.743 272.321C262.816 271.187 265.522 269.533 267.465 266.869C268.918 264.877 272.14 259.962 271.34 257.759C270.359 255.058 265.68 253.201 263.181 252.904C259.938 252.519 256.616 253.172 253.298 253.446C249.747 253.74 246.301 254.532 242.787 254.914C239.375 255.284 234.795 256.425 231.48 255.57C231.393 256.937 232.534 258.774 232.931 260.166C233.452 261.991 233.917 263.832 234.339 265.682C234.792 267.662 237.594 274.78 235.046 276.203C232.054 277.874 230.627 270.72 230.254 268.977C229.366 264.819 228.602 260.665 229.532 256.486C225.714 255.796 221.11 256.821 217.172 257.092C218.639 262.272 219.585 267.697 220.875 272.939ZM56.4247 275.191C57.7524 275.783 59.5769 275.465 61.0201 275.579C63.2754 275.756 65.5539 276.165 67.8242 276.092C71.2885 275.982 74.9202 275.543 78.3873 275.145C76.4095 271.57 75.2095 268.185 74.9627 264.087C74.874 262.615 74.0946 253.486 76.8043 253.876C78.1117 254.065 77.8341 261.86 78.0878 263.296C78.4566 265.379 78.9324 267.512 79.5115 269.551C79.9318 271.03 81.3616 273.246 80.9952 274.845C82.7432 274.562 84.4915 274.278 86.2399 273.994C84.8806 271.277 83.8876 268.842 83.3786 265.812C83.1326 264.35 83.2895 262.53 82.8125 261.141C82.5117 260.265 81.826 259.442 81.7344 258.708C81.6287 257.861 82.5543 255.779 82.2118 255.027C81.8755 254.287 79.5334 253.603 78.7127 253.195C76.4509 252.072 75.1252 251.788 72.5903 252.433C67.7006 253.679 59.9968 254.563 56.3501 257.923C52.7375 261.251 51.4228 272.478 56.4247 275.191ZM269.971 112.938C271.324 112.785 272.664 112.69 274.025 112.62C272.037 109.816 270.231 106.885 268.583 103.869C267.775 102.391 267.012 100.889 266.282 99.3715C265.444 97.6299 265.467 96.4928 263.645 96.1467C261.123 95.6677 257.75 96.6248 255.156 96.516C253.151 96.4314 248.65 94.5408 247.036 95.2261C248.508 98.251 247.326 102.957 247.384 106.214C247.441 109.452 247.04 112.582 246.472 115.775C249.911 115.775 254.216 114.585 257.688 114.053C261.731 113.434 265.852 113.402 269.971 112.938ZM215.369 279.17C216.694 278.999 217.954 278.947 219.291 278.947C216.278 274.05 214.003 268.574 213.977 262.74C213.974 261.977 214.889 257.591 214.587 257.226C213.996 256.516 211.547 257.077 210.876 257.144C208.132 257.419 205.081 257.398 202.497 258.389C200.715 259.073 200.695 258.66 199.986 260.763C199.567 262.007 199.265 263.428 199.257 264.736C199.24 267.379 200.081 270.469 201.168 272.849C202.203 275.114 203.838 277.544 206.088 278.761C208.679 280.164 212.331 279.329 215.369 279.17ZM242.766 97.2594C242.245 95.3086 242.47 95.749 240.738 95.5068C240.373 95.456 236.405 95.5385 236.176 95.7717C235.914 96.0406 236.014 100.013 235.98 100.467C235.862 102.025 235.688 103.579 235.519 105.132C234.832 111.437 233.528 117.541 232.551 123.794C234.966 122.291 238.457 124.34 240.52 122.713C242.151 121.428 241.906 117.316 242.028 115.502C242.435 109.429 242.574 103.342 242.766 97.2594ZM329.979 89.8965C329.761 90.2463 329.544 90.5961 329.327 90.9459C330.17 91.4878 335.107 85.9746 336.205 84.9882C337.667 83.6748 339.982 81.921 340.641 80.0007C341.407 77.7691 340.654 74.2461 340.468 71.9386C340.335 70.2872 340.617 68.0033 339.274 66.8495C338.038 65.788 334.993 65.8165 333.529 66.0435C329.136 66.7252 326.494 70.3465 324.276 73.7972C326.528 73.5198 334.466 69.8871 335.388 71.8517C336.727 74.706 328.39 77.2581 327.566 79.7626C329.273 80.3667 333.037 78.0235 331.978 81.9222C331.797 82.4678 331.482 82.9196 331.033 83.2775C330.253 83.5541 330.069 84.0754 330.479 84.8415C330.13 86.3686 330.202 88.3008 329.979 89.8965ZM380.543 228.113C380.566 229.039 380.651 229.924 381.406 230.578C383.08 225.264 383.602 219.949 384.296 214.423C384.99 208.896 385.728 203.233 385.838 197.711C385.961 191.522 385.378 184.79 384.379 178.676C383.598 173.896 382.994 168.015 380.151 163.947C381.765 174.489 381.263 184.485 380.175 195.064C379.597 200.682 378.781 206.256 378.407 211.898C378.308 213.388 378.276 214.896 378.147 216.383C378.071 217.26 377.205 218.92 377.197 219.35C377.155 221.738 379.706 225.92 380.543 228.113ZM294.642 219.902C295.985 222.999 297.512 226.05 298.317 229.343C299.167 232.821 298.801 236.059 298.937 239.583C299.163 245.429 298.695 251.241 298.777 257.096C298.847 262.086 298.656 266.951 298.706 271.888C298.737 275.012 298.567 278.123 298.577 281.245C298.577 281.235 298.701 284.047 298.487 284.189C297.525 284.829 296.474 283.92 296.18 283.045L293.329 286.278C294.823 285.902 296.661 285.116 298.197 285.046C298.785 284.829 299.37 284.823 299.954 285.028C300.533 285.379 300.962 285.868 301.241 286.496C305.266 287.355 307.682 283.764 308.405 280.554C309.973 273.588 309.408 266.71 309.294 259.678C309.047 244.4 311.469 229.213 311.24 213.933C311.196 210.977 311.083 208.054 311.527 205.103C312.349 199.621 313.564 204.639 313.759 207.227C314.345 215.002 315.366 223.024 314.804 230.847C314.299 237.896 314.346 245.01 313.996 252.08C313.623 259.594 313.024 266.949 313.369 274.47C315.382 274.212 321.857 273.827 322.531 276.662C323.119 279.134 320.753 278.219 319.524 278.115C317.531 277.946 315.584 278.414 313.405 278.023C313.565 281.348 314.023 285.808 311.058 288.053C309.6 289.158 307.185 290.155 305.481 290.806C303.812 291.445 300.984 292.859 299.244 292.782C298.013 292.727 297.539 292.063 296.189 292.169C294.185 292.327 292.451 293.67 290.327 292.56C286.298 290.456 288.278 284.334 290.822 281.881C291.478 281.248 292.215 280.556 293.095 280.247C293.513 280.101 295.263 280.278 295.465 280.058C296.21 279.248 295.28 274.507 295.181 273.607C294.658 268.887 294.089 264.067 293.875 259.326C293.673 254.869 293.449 250.402 293.296 245.943C293.263 244.972 293.692 242.976 293.287 242.127C292.612 240.717 289.651 239.819 288.367 239.162C289.512 250.4 291.193 262.478 287.05 273.182C286.228 275.308 285.305 278.342 283.219 279.524C281.253 280.639 276.623 280.481 274.268 280.614C271.735 280.756 269.255 280.163 267.86 277.779C266.762 275.903 267.42 273.652 269.674 272.834C271.024 272.345 271.287 272.659 272.47 273.242C272.726 273.659 272.906 274.108 273.011 274.588H273.92C275.152 275.139 280.076 275.755 281.43 274.876C282.999 273.859 283.34 271.106 284.009 269.471C285.252 266.433 285.581 263.967 286.032 260.72C286.738 255.637 286.023 249.743 286.036 244.447C286.04 242.956 286.047 241.464 286.049 239.973C286.051 237.72 286.247 237.734 284.965 236.112C283.033 233.668 280.829 231.17 278.761 228.828C279.882 235.672 279.423 242.879 278.978 249.699C278.728 253.53 278.211 257.432 277.974 261.212C277.903 262.348 278.717 265.48 277.401 265.982C276.065 266.492 274.403 264.115 273.864 263.257C270.92 269.146 267.406 274.826 261.333 277.872C258.21 279.439 254.958 280.145 251.549 280.759C248.392 281.329 245.474 282.367 242.361 282.857C235.918 283.871 229.983 284.014 223.5 283.793C217.383 283.584 211.526 284.716 205.429 283.291C203.049 282.734 200.645 281.713 199.018 279.887C198.13 278.89 197.737 277.322 196.842 276.403C196.64 275.214 195.943 274.848 194.749 275.303C193.999 275.337 193.252 275.312 192.508 275.228C186.393 274.906 179.596 275.265 173.67 273.514C171.421 272.85 168.91 271.755 170.032 268.933C171.013 266.467 173.719 267.216 175.939 267.431C182.385 268.057 188.731 269.199 195.271 269.774C195.06 266.349 195.241 262.855 196.581 259.651C192.044 259.08 187.341 258.219 183.024 256.767C181.691 256.318 180.365 255.852 179.042 255.373C176.863 254.583 177.316 254.379 176.053 255.757C174.467 257.49 173.496 261.104 172.347 263.197C171.053 265.553 169.813 267.881 168.723 270.34C167.691 272.667 166.922 275.784 165.35 277.789C161.893 282.2 153.909 282.582 149.21 280.849C146.909 280 146.078 279.867 144.683 277.799C143.155 275.534 142.775 275.402 139.96 275.094C134.876 274.539 130.077 273.259 125.314 271.493C120.282 269.627 115.116 268.172 110.098 266.158C105.402 264.272 100.862 262.374 96.0025 260.902C95.4258 264.576 97.8153 268.72 97.8153 272.508C100.643 272.224 103.28 271.975 106.082 271.524C107.082 271.364 113.379 269.947 113.993 270.783C116.554 274.267 104.901 275.906 103.08 276.366C97.2438 277.842 91.2924 279.214 85.4192 280.355C79.4244 281.52 73.5803 282.68 67.4947 282.889C57.1972 283.243 42.9935 282.647 43.4851 269.085C43.678 263.771 45.8621 258.004 50.0412 254.538C52.6415 252.381 55.8841 251.196 59.063 250.22C60.2375 249.859 66.4248 249.017 66.6129 248.553C64.8694 247.301 61.8894 246.974 59.8209 246.009C57.8488 245.088 55.7678 244.745 53.7491 243.817C49.7154 241.964 45.8195 239.698 42.0898 237.405C39.1236 235.582 36.1246 233.569 33.3938 231.402C31.224 229.68 29.1445 228.024 27.41 226.056C26.5021 225.027 24.8952 224.115 24.1682 223.228C21.615 220.113 24.3076 213.915 25.3949 210.289C26.9832 204.989 29.1028 199.349 32.2287 194.757C35.1033 190.535 38.3082 187.69 43.4645 186.701C48.2236 185.788 53.0091 185.499 57.8764 185.243C57.0586 182.124 55.9072 179.923 56.1994 176.502C56.475 173.276 58.1001 170.07 59.3755 167.132C61.7468 161.67 63.9839 156.323 67.2269 151.294C69.0093 148.531 71.0113 145.907 72.957 143.259C73.2707 142.832 75.2209 140.878 75.1463 140.328C75.0721 139.782 73.1139 138.117 72.814 137.735C70.8002 135.173 69.408 132.413 71.7728 129.671C73.0057 128.241 76.6304 125.353 78.3751 127.17C80.2617 123.349 83.5614 120.743 86.1304 117.493C89.3333 113.439 92.3915 109.324 95.3897 105.078C98.375 100.851 100.813 96.3092 104.771 92.9024C109.18 89.1059 113.332 89.4342 118.748 91.0572C119.057 88.963 119.487 89.2416 121.508 88.5425C123.037 88.0131 124.524 87.3851 126.028 86.7875C127.626 86.1517 129.244 85.7909 130.878 85.2913C133.055 84.6258 133.382 84.8432 133.735 82.0096C134.163 78.5857 132.702 74.9656 131.759 71.7404C131.294 70.1491 130.97 68.1682 129.923 67.0978C128.976 66.1297 127.297 65.6889 126.261 64.6184C117.336 55.3961 117.196 35.7052 126.703 27.1341C128.55 25.4681 130.074 23.2268 132.374 22.1019C134.899 20.8665 138.23 19.8675 141.012 19.2854C146.745 18.0861 153.174 18.4668 157.706 22.5065C159.941 24.4988 161.304 27.6655 162.066 30.4942C162.794 33.1962 162.638 37.7633 159.879 33.5874C158.139 30.9537 156.627 28.2676 153.682 26.9647C151.05 25.8008 147.837 25.1724 144.969 25.4194C138.212 26.0011 132.736 27.9901 128.058 33.0036C122.886 38.5469 122.623 47.3971 123.738 54.4459C124.72 52.361 125.386 49.0599 128.14 48.6617C130.435 48.3298 134.054 51.2678 132.822 53.7971C127.232 52.3688 125.597 60.8423 130.431 61.3526C131.894 61.507 133.748 58.8956 135.095 59.5037C137.615 60.6404 134.238 64.5575 133.572 65.8473C133.218 66.0655 132.865 66.2836 132.511 66.5022C132.859 67.3139 133.211 68.1244 133.566 68.9332C133.997 69.9647 134.407 70.9986 134.786 72.0508C135.707 74.6114 136.662 77.2516 137.218 79.919C137.782 82.6311 138.075 85.7983 136.741 88.3463C135.275 91.147 133.894 90.8025 132.768 88.1383C129.82 90.0009 126.856 91.9871 123.39 92.722C127.025 98.8336 131.729 104.088 138.803 106.01C144.798 107.639 152.344 107.58 158.065 104.884C164.001 102.087 167.267 95.5499 166.561 89.0458C166.332 86.9394 165.109 79.6229 168.018 84.9155C169.614 87.8181 169.731 92.5266 169.367 95.7095C167.627 110.935 152.23 116.631 138.954 112.966C132.143 111.085 127.235 106.052 123.581 100.127C122.729 98.745 121.949 97.3191 121.188 95.8855C120.883 95.3126 120.616 94.5127 120.209 94.0102C118.618 92.0411 120.182 93.1384 118.492 92.8918C115.877 92.5107 111.762 94.518 109.821 96.1085C104.553 100.423 101.635 107.325 97.5912 112.764C93.2863 118.553 87.8192 123.705 82.335 128.324C88.5386 134.694 94.7417 141.062 100.945 147.432C102.227 146.01 104.663 142.76 105.004 140.859C105.203 139.744 104.307 136.077 107.065 137.709C108.927 138.811 109.633 143.529 110.214 145.459C111.111 148.44 112.622 151.248 113.599 154.198C115.411 159.672 117.642 165.097 119.498 170.61C120.253 172.852 122.404 175.634 120.337 177.532C117.195 180.415 116.261 174.738 115.429 172.569C114.27 174.184 114.421 176.802 113.823 178.685C113.458 179.836 112.348 181.627 112.384 182.76C112.447 184.698 114.203 185.275 115.784 186.358C118.727 188.373 121.747 190.34 124.442 192.687C125.567 193.666 126.601 194.657 127.422 195.916C128.139 197.016 128.354 199.495 129.146 200.26C130.182 201.26 134.011 200.563 136.033 200.781C139.409 201.145 142.831 202.349 146.109 203.213C151.909 204.743 157.875 206.947 163.949 207.764C169.915 208.567 175.513 208.168 181.459 207.099C184.707 206.515 188.195 205.817 191.159 204.251C194.572 202.448 197.599 199.564 200.788 197.385C202.215 196.41 203.675 195.489 205.134 194.564C207.084 193.329 206.574 193.597 206.701 191.635C206.848 189.363 207.794 185.026 206.281 183.005C205.649 182.161 203.71 181.544 202.796 180.93C201.469 180.036 200.279 178.999 198.856 178.28C197.303 177.496 197.258 178.117 196.537 176.193C195.882 174.445 195.45 172.614 194.849 170.848C192.099 162.771 191.388 154.567 190.249 146.133C189.719 142.216 188.42 136.885 189.891 133.069C191.937 127.761 193.649 135.184 194.081 137.087C196.034 133.733 197.156 130.004 199.188 126.693C200.372 124.763 200.952 123.777 201.619 121.662C201.89 120.806 201.998 120.094 202.569 119.383C203.778 117.878 203.957 118.736 205.214 118.699C209.168 118.583 213.054 118.685 217.012 118.868C219.2 118.97 221.387 119.023 223.59 119.015C224.663 119.011 225.749 118.959 226.822 119.021C227.399 119.014 227.975 119.058 228.547 119.15C229.728 119.703 230.178 119.227 229.899 117.721C230.927 115.565 230.859 112.125 231.223 109.773C231.589 107.405 231.929 105.034 232.235 102.657C232.398 101.387 233.772 96.5935 233.043 95.5499C232.321 94.5152 228.555 94.7471 227.441 94.5615C220.034 93.3273 213.145 90.2678 206.217 87.7613C202.806 86.5275 199.569 84.8615 196.298 83.3478C194.595 82.5596 192.985 80.9367 191.19 80.4313C188.925 79.7935 185.918 80.8132 183.66 81.1971C179.359 81.9287 175.209 82.5694 170.844 82.8074C169.302 82.8915 166.369 83.325 164.978 82.2627C162.183 80.129 165.365 78.8815 167.192 78.6121C175.272 77.421 183.327 76.7365 191.468 76.2392C191.85 76.216 193.248 75.9313 193.714 76.0783C194.774 76.4139 194.346 76.8031 194.982 77.1492C196.159 77.7903 197.502 78.2623 198.995 78.66C203.259 79.7951 207.552 81.6996 211.83 83.1962C219.528 85.8889 228.725 90.1821 236.424 89.4273C238.324 89.2412 239.886 89.0032 241.872 89.1961C244.198 89.4224 245.556 90.6184 247.343 90.9662C249.738 91.4317 253.163 91.0819 255.683 91.1713C258.086 91.2566 260.491 91.3684 262.896 91.3684C260.784 87.1125 259.498 83.1166 258.312 78.5459C257.664 76.0531 256.691 73.7891 257.112 71.1639C257.312 69.9249 257.806 68.7605 258.344 67.6413C259.157 65.9517 259.388 66.3052 259.677 64.434C260.074 61.8588 259.505 59.1434 259.817 56.5605C260.137 53.9097 262.135 51.5469 262.358 49.0127C262.477 47.6644 261.724 46.5639 261.949 45.1095C262.151 43.8087 262.919 42.4449 263.609 41.3496C265.217 38.7976 267.174 37.3505 269.89 36.3109C272.074 35.4753 274.86 34.7087 277.066 36.0619C279.317 37.4423 279.155 40.2207 280.233 42.2479C282.552 46.6069 287.903 50.5025 292.168 52.7287C296.086 54.7738 300.307 56.0656 304.508 57.3994C307.065 58.211 309.694 58.79 312.207 59.7174C314.015 60.3853 316.965 62.005 318.807 61.0211C320.412 60.1635 322.284 57.5464 323.873 56.3313C325.732 54.9099 328.211 53.5225 330.552 54.7608C332.892 55.9986 332.7 60.5616 334.521 61.4196C335.155 61.7186 337.038 60.8427 337.903 60.9809C339.3 61.2035 340.262 62.07 341.099 63.1368C344.226 67.1234 345.195 73.4466 345.331 78.361C345.4 80.8156 345.34 83.8686 343.845 85.9526C342.1 88.3836 338.799 88.4438 336.56 90.1545C334.769 91.5227 333.5 93.7595 331.682 95.2176C330.563 96.1162 330.131 95.426 329.667 96.8263C329.365 97.7371 329.975 99.5141 330.155 100.395C331.268 105.832 333.353 110.846 335.332 116.025C336.264 118.465 337.055 120.906 337.48 123.492C337.759 125.189 337.437 126.673 337.572 128.305C337.668 129.468 338.161 130.472 338.052 131.663C337.823 134.188 336.455 136.417 335.586 138.637C334.594 141.168 335.956 145.551 336.955 148.169C339.347 154.439 342.712 160.775 345.702 166.8C348.639 172.719 350.823 179.022 354.244 184.708C357.567 190.229 361.477 195.636 365.258 200.858C367.361 203.764 369.592 206.527 371.498 209.574C371.915 210.24 374.759 215.765 375.496 215.574C374.592 205.932 375.507 195.903 375.911 186.268C376.417 174.206 374.885 163.279 371.499 151.766C370.708 149.074 370.002 146.319 369.445 143.569C369.055 141.643 367.955 140.06 370.657 140.902C375.131 142.296 379.068 150.762 381.343 154.447C386.437 162.701 390.692 173.708 391.263 183.389C391.823 192.891 391.34 201.983 390.155 211.345C389.57 215.964 388.626 221.112 387.183 225.53C386.44 227.802 385.548 230.155 384.56 232.332C384.142 233.251 383.226 234.29 383.067 235.299C382.817 236.901 383.988 239.062 384.281 240.644C385.238 245.82 385.458 251.184 385.132 256.437C384.957 259.254 384.569 261.774 383.652 264.424C382.483 267.799 383.026 270.378 383.513 273.857C384.033 277.581 384.532 286.045 380.669 288.161C380.396 288.133 380.123 288.104 379.85 288.076C379.159 287.279 378.547 287.326 378.012 288.218C377.013 288.545 376.037 289.386 374.985 289.748C372.543 290.589 369.908 290.64 367.361 291.009C362.377 291.733 357.409 293.009 352.512 293.163C346.713 293.346 340.664 293.118 334.994 292.099C333.822 291.889 332.452 291.332 331.28 291.225C329.69 291.08 328.573 292.14 326.931 291.891C324.386 291.504 322.778 288.804 322.611 286.592C322.081 279.542 325.983 276.309 332.36 275.057C328.239 269.144 323.495 264.293 322.399 256.699C321.32 249.227 323.66 240.58 327.911 234.593C331.992 228.847 338.954 225.005 346.134 226.463C349.467 227.14 365.189 231.793 362.15 237.071C361.476 234.656 357.331 235.124 355.328 234.775C352.006 234.197 348.684 233.324 345.314 233.504C338.684 233.857 332.277 237.788 329.067 243.739C325.366 250.599 327.055 257.445 331.51 263.302C335.584 268.658 339.784 274.284 345.262 278.152C344.203 279.84 344.586 280.369 342.483 280.067C341.038 279.859 339.687 278.73 338.227 278.449C335.2 277.867 330.436 280.353 328.565 282.839C327.46 284.308 327.501 285.034 329.539 285.939C331.042 286.606 333.41 286.262 335.025 286.406C339.043 286.766 343.137 286.886 347.168 286.872C354.145 286.846 360.633 285.724 367.538 284.998C370.598 284.676 373.798 285.047 376.793 283.918C380.848 282.389 379.854 277.899 379.329 274.261C378.808 270.658 379.338 267.864 379.903 264.296C380.148 262.746 380.605 260.957 380.281 259.397C379.897 257.543 379.208 256.723 379.296 254.656C379.608 247.3 378.688 239.553 376.743 232.454C372.519 217.034 362.204 204.864 353.601 191.758C351.171 188.056 348.617 184.548 346.682 180.539C344.85 176.741 343.588 172.724 341.768 168.916C337.758 160.521 333.954 151.874 331.61 142.845C328.954 143.893 326.092 145.434 323.245 145.804C320.019 146.223 316.57 143.611 314.536 141.312C309.896 136.068 308.837 128.956 309.184 122.198C309.287 120.198 309.411 118.182 309.768 116.208C310.001 114.927 311.504 111.827 311.161 110.633C310.795 109.356 308.659 108.246 308.003 106.981C307.167 105.37 307.071 103.297 307.116 101.521C307.157 99.8992 308.05 91.9586 310.615 95.2042C312.085 97.0636 309.937 104.074 311.428 105.028C312.77 105.887 314.618 104.838 316.009 106.8C317.512 108.921 316.707 111.535 316.18 113.794C315.091 118.465 314.068 123.509 314.096 128.307C314.121 132.675 314.9 138.198 319.662 139.964C322.068 140.857 323.894 140.243 325.688 138.581C326.099 138.106 326.519 137.639 326.946 137.18C327.339 136.504 327.941 136.419 328.753 136.928C329.354 136.45 330.245 133.143 330.546 132.404C334.234 123.344 328.42 112.943 326.288 104.054C324.984 98.6171 323.847 93.1636 326.486 87.9165C326.914 87.067 328.09 86.3288 327.384 85.1101C327.198 84.7895 325.422 84.6392 325.001 84.2667C323.63 83.0541 323.916 80.7933 323.916 79.1744C320.746 80.1542 319.833 77.6822 320.245 74.6524C317.881 75.0282 316.239 75.7529 315.363 73.0107C314.587 70.5789 315.759 68.0992 316.537 65.8331C305.597 64.6578 293.782 63.1519 285.064 55.585C282.915 53.7191 281.127 51.3706 279.637 48.9376C279.368 48.4976 278.1 45.4004 277.68 45.2387C276.431 44.7581 275.384 47.207 274.274 47.8135C273.288 48.3522 271.885 48.6491 270.79 48.9774C269.758 49.2865 266.122 49.3483 265.478 49.885C263.866 51.2272 263.993 58.987 263.98 60.7879C263.936 66.9905 265.318 73.1716 267.872 78.8189C270.278 84.1375 273.959 91.4516 278.771 94.9324C279.987 95.8123 281.081 96.2685 282.622 96.1958C283.723 96.1442 284.814 95.3716 285.96 95.7733C288.861 96.7906 287.823 98.8117 285.593 99.7672C279.22 102.5 273.849 96.4928 270.163 92.2962C269.084 97.2752 274.088 103.167 276.736 107.23C278.423 109.819 280.091 112.41 281.697 115.052C282.862 116.971 285.153 120.514 281.084 119.032C279.121 129.36 273.733 138.392 270.982 148.428C268.157 158.731 265.695 170.494 265.695 181.224C267.846 179.723 268.93 172.884 271.823 178.118C272.136 178.684 272.038 179.622 272.45 180.117C273.021 180.801 273.708 180.611 274.582 181.099C275.968 181.872 276.862 183.413 275.623 184.75C277.219 184.378 278.89 184.567 279.234 186.459C279.427 187.521 277.876 192.441 276.718 192.842C273.19 194.067 269.277 187.005 268.322 184.759C266.117 186.977 263.577 188.683 261.546 185.096C260.032 182.422 260.91 178.378 261.124 175.468C261.554 169.606 262.116 163.888 262.96 158.082C264.542 147.196 268.558 137.513 273.49 127.714C274.848 125.017 276.353 122.256 277.566 119.497C279.396 115.333 276.533 116.315 273.735 116.92C268.253 118.105 262.514 119.024 256.975 119.444C254.083 119.663 250.381 119.793 247.603 120.631C245.649 121.22 245.984 120.813 245.2 122.91C244.849 123.849 244.453 124.847 243.834 125.651C240.678 129.75 232.503 129.064 227.988 128.759C228.261 127.03 228.532 125.3 228.815 123.573C225.34 124.391 221.212 124.961 217.632 124.919C215.705 124.897 213.656 124.603 211.734 124.442C210.316 124.324 207.629 123.317 206.296 123.709C204.749 124.163 202.41 129.768 201.526 131.576C199.866 134.97 196.899 138.741 195.851 142.315C194.922 145.483 196.817 150.949 197.413 154.103C198.273 158.662 199.057 163.23 200.499 167.65C201.545 170.855 202.75 175.273 205.96 176.871C209.158 178.465 211.457 179.361 214.919 179.037C221.015 178.466 227.501 179.404 233.519 180.591C239.717 181.815 245.392 182.366 251.277 184.545C264.624 189.491 273.124 204.724 268.091 218.68C265.197 226.706 260.428 232.672 253.433 237.637C249.869 240.168 245.658 242.221 241.75 244.171C239.956 245.066 238.192 246.152 236.364 246.948C235.027 247.529 232.731 248.867 231.279 249.014C232.89 249.782 234.316 249.063 235.993 248.824C238.365 248.486 240.787 248.414 243.168 248.119C246.874 247.659 250.524 247.312 254.231 246.851C257.395 246.457 260.965 246.317 264.11 246.771C265.629 246.99 267.915 247.422 269.268 248.156C270.332 248.733 271.307 250.062 272.451 250.72C273.71 245.54 273.121 239.155 273.18 233.832C273.228 229.486 273.421 225.237 273.83 220.912C274.286 216.075 271.334 210.574 270.244 205.836C269.224 201.402 266.506 195.782 267.507 191.154C268.768 185.32 272.07 195.801 272.524 197.299C273.945 201.988 275.595 206.565 277.17 211.198C279.043 216.709 280.931 222.05 283.66 227.215C285.931 231.512 288.54 236.554 293.207 238.65C292.822 232.33 292.394 226.478 289.773 220.651C287.288 215.125 283.497 210.211 281.84 204.29C281.017 201.347 280.896 198.338 280.855 195.299C280.827 193.254 280.921 190.506 283.109 192.71C284.844 194.458 285.18 200.035 285.94 202.388C286.306 203.521 286.813 204.561 287.217 205.663C287.399 206.159 288.624 208.576 288.624 208.901C289.887 212.721 292.68 216.386 294.642 219.902Z" fill="black"/>
<path fill-rule="evenodd" clip-rule="evenodd" d="M160.676 80.6107C160.796 82.0907 161.652 85.9265 160.556 87.0977C159.102 88.6516 158.413 86.6529 157.784 85.077C156.471 81.784 155.818 75.4071 158.414 72.6628C161.124 69.7972 166.48 69.72 169.372 66.8661C170.533 65.7196 170.422 65.9589 170.32 64.1665C170.263 63.1546 169.61 61.8099 169.295 60.9003C168.474 58.5367 167.574 56.2016 166.715 53.8518C165.215 54.5372 163.057 56.6513 161.579 54.8792C160.214 53.2408 162.486 50.5563 164.069 50.0774C163.242 48.2667 159.35 48.6015 158.608 45.9417C157.964 43.6302 159.815 44.5487 160.22 43.6383C160.696 42.567 159.72 41.1187 160.223 40.1316C161.966 36.704 163.896 43.0062 164.764 44.1311C166.379 46.2233 169.192 46.6803 169.44 49.845C169.593 51.7934 169.447 52.6993 170.247 54.6127C170.985 56.3742 171.861 58.0634 172.479 59.8761C173.41 62.6073 174.846 67.5778 173.026 70.2225C171.492 72.4532 167.766 74.1538 165.344 75.1077C164.13 75.585 162.448 75.8759 161.466 76.8058C160.185 78.0188 160.584 78.7643 160.676 80.6107Z" fill="black"/>
<path fill-rule="evenodd" clip-rule="evenodd" d="M286.554 163.2C286.277 162.764 286 162.327 285.724 161.891C283.807 163.944 281.683 164.787 279.746 162.18C277.75 159.495 278.5 155.47 279.276 152.538C279.675 151.029 281.694 145.08 282.988 149.612C283.273 150.612 282.319 152.839 282.146 153.818C281.807 155.739 281.539 157.581 281.778 159.537C284.026 157.521 285.127 152.408 287.408 157.717C288.235 159.642 288.326 162.813 290.528 159.888C291.704 158.327 291.779 155.444 292.33 153.604C296.084 154.504 295.399 160.069 294.146 162.78C292.151 167.097 289.436 165.707 286.554 163.2Z" fill="black"/>
<path fill-rule="evenodd" clip-rule="evenodd" d="M299.696 66.3538C301.031 68.5862 298.505 72.6686 298.048 74.9606C300.284 74.701 305.82 69.2926 307.378 70.1844C310.621 72.0401 303.77 78.5125 302.454 79.4611C291.933 87.0409 293.83 65.1152 299.696 66.3538Z" fill="black"/>
<path fill-rule="evenodd" clip-rule="evenodd" d="M286.504 91.2134C290.434 90.1166 295.734 97.1877 293.185 100.69C291.356 103.201 289.096 101.765 288.523 99.5537C288.231 98.426 288.49 97.0671 288.108 95.8093C287.638 94.2607 287.008 92.7523 286.504 91.2134Z" fill="black"/>
<path fill-rule="evenodd" clip-rule="evenodd" d="M165.616 60.7336C168.605 63.252 162.497 69.3916 159.435 64.5841C158.593 63.2617 158.44 62.0548 159.688 61.5665C160.319 61.3203 161.806 62.1267 162.696 61.9841C163.672 61.8277 164.731 61.1399 165.616 60.7336Z" fill="black"/>
<path fill-rule="evenodd" clip-rule="evenodd" d="M155.343 50.6635C154.183 49.2132 150.924 40.2919 154.963 42.2789C156.992 43.2766 158.668 50.9032 155.343 50.6635Z" fill="black"/>
<path fill-rule="evenodd" clip-rule="evenodd" d="M288.711 242.54C288.597 241.414 288.482 240.288 288.367 239.162C289.859 239.925 292.851 240.678 293.37 242.384C294.345 245.59 289.817 243.026 288.711 242.54Z" fill="black"/>
<path fill-rule="evenodd" clip-rule="evenodd" d="M332.006 106.745C331.118 105.543 328.355 95.5085 330.752 95.7381C331.172 99.3781 331.258 103.158 332.006 106.745Z" fill="black"/>
<path fill-rule="evenodd" clip-rule="evenodd" d="M294.644 219.902C292.681 216.386 289.888 212.722 288.625 208.9C291.586 211.304 293.899 216.214 294.644 219.902Z" fill="black"/>
<path fill-rule="evenodd" clip-rule="evenodd" d="M375.138 211.752C375.257 213.026 375.377 214.3 375.496 215.574C373.718 216.034 375.029 212.172 375.138 211.752Z" fill="black"/>
<path fill-rule="evenodd" clip-rule="evenodd" d="M288.63 208.906C287.788 207.988 287.427 206.858 287.219 205.663C287.689 206.743 288.159 207.825 288.63 208.906Z" fill="black"/>
<path fill-rule="evenodd" clip-rule="evenodd" d="M298.809 266.594C298.84 265.46 298.871 264.326 298.902 263.195C298.871 264.33 298.84 265.462 298.809 266.594Z" fill="black"/>
<path fill-rule="evenodd" clip-rule="evenodd" d="M165.828 82.6209C166.581 82.7148 167.335 82.8086 168.088 82.9024C167.493 83.1815 166.093 83.5524 165.828 82.6209Z" fill="black"/>
<path fill-rule="evenodd" clip-rule="evenodd" d="M316.027 278.494C316.811 278.376 317.597 278.105 318.367 278.54C317.586 278.525 316.807 278.51 316.027 278.494Z" fill="black"/>
<path fill-rule="evenodd" clip-rule="evenodd" d="M293.633 252.88C293.643 253.719 293.654 254.559 293.663 255.396C293.652 254.555 293.643 253.718 293.633 252.88Z" fill="black"/>
<path fill-rule="evenodd" clip-rule="evenodd" d="M309.828 239.812C309.778 240.708 309.729 241.604 309.68 242.497C309.729 241.601 309.778 240.707 309.828 239.812Z" fill="black"/>
<path fill-rule="evenodd" clip-rule="evenodd" d="M299.166 243.317C299.124 242.538 299.081 241.759 299.039 240.981C299.082 241.761 299.124 242.539 299.166 243.317Z" fill="black"/>
<path fill-rule="evenodd" clip-rule="evenodd" d="M322.454 250.192C322.412 250.886 322.37 251.58 322.328 252.272C322.37 251.577 322.412 250.884 322.454 250.192Z" fill="black"/>
<path fill-rule="evenodd" clip-rule="evenodd" d="M181.749 267.724C180.987 268.109 180.225 268.148 179.465 267.719C180.227 267.721 180.988 267.723 181.749 267.724Z" fill="black"/>
<path fill-rule="evenodd" clip-rule="evenodd" d="M259.777 58.0153C259.788 58.7014 259.799 59.3876 259.809 60.0709C259.798 59.3839 259.787 58.6998 259.777 58.0153Z" fill="black"/>
<path fill-rule="evenodd" clip-rule="evenodd" d="M184.073 76.7365C183.292 76.7958 182.511 76.8547 181.73 76.914C182.511 76.8547 183.292 76.7958 184.073 76.7365Z" fill="black"/>
<path fill-rule="evenodd" clip-rule="evenodd" d="M345.336 79.3771C345.332 78.6998 345.327 78.0226 345.324 77.3466C345.682 78.0226 345.689 78.699 345.336 79.3771Z" fill="black"/>
<path fill-rule="evenodd" clip-rule="evenodd" d="M160.677 80.6107C160.641 79.8912 160.606 79.1722 160.57 78.4539C160.606 79.1738 160.642 79.892 160.677 80.6107Z" fill="black"/>
<path fill-rule="evenodd" clip-rule="evenodd" d="M352.512 293.163C353.039 293.167 353.567 293.171 354.089 293.174C353.56 293.171 353.036 293.167 352.512 293.163Z" fill="black"/>
<path fill-rule="evenodd" clip-rule="evenodd" d="M213.371 284.212C213.818 284.212 214.265 284.211 214.707 284.212C214.258 284.212 213.815 284.212 213.371 284.212Z" fill="black"/>
<path fill-rule="evenodd" clip-rule="evenodd" d="M313.441 283.026C313.483 282.466 313.525 281.906 313.566 281.348C313.525 281.909 313.483 282.468 313.441 283.026Z" fill="black"/>
<path fill-rule="evenodd" clip-rule="evenodd" d="M240.049 89.0231C239.381 89.017 238.714 89.0113 238.047 89.0056C238.718 88.6164 239.384 88.7278 240.049 89.0231Z" fill="black"/>
<path fill-rule="evenodd" clip-rule="evenodd" d="M150.985 18.9958C150.312 18.9742 149.601 19.3256 148.98 18.791C149.649 18.8593 150.317 18.9275 150.985 18.9958Z" fill="black"/>
<path fill-rule="evenodd" clip-rule="evenodd" d="M132.813 85.1138C132.168 85.1731 131.523 85.2324 130.879 85.2913C131.524 85.232 132.168 85.1731 132.813 85.1138Z" fill="black"/>
<path fill-rule="evenodd" clip-rule="evenodd" d="M173.436 267.144C172.757 267.215 172.077 267.286 171.398 267.357C172.078 267.286 172.757 267.215 173.436 267.144Z" fill="black"/>
<path fill-rule="evenodd" clip-rule="evenodd" d="M190.346 76.3264C189.684 76.3406 189.021 76.3548 188.359 76.369C189.016 76.1054 189.674 75.8568 190.346 76.3264Z" fill="black"/>
<path fill-rule="evenodd" clip-rule="evenodd" d="M298.781 257.959C298.777 257.384 298.773 256.808 298.77 256.234C298.773 256.81 298.777 257.384 298.781 257.959Z" fill="black"/>
<path fill-rule="evenodd" clip-rule="evenodd" d="M375.382 209.144C375.311 209.84 375.239 210.536 375.168 211.232C375.239 210.536 375.311 209.84 375.382 209.144Z" fill="black"/>
<path fill-rule="evenodd" clip-rule="evenodd" d="M289.429 253.995C289.379 253.402 289.33 252.81 289.281 252.219C289.33 252.812 289.38 253.403 289.429 253.995Z" fill="black"/>
<path fill-rule="evenodd" clip-rule="evenodd" d="M66.613 248.553C66.4918 249.144 66.0622 249.26 65.3242 248.902L66.613 248.553Z" fill="black"/>
<path fill-rule="evenodd" clip-rule="evenodd" d="M314.157 248.816C314.117 248.301 314.078 247.786 314.039 247.273C314.079 247.788 314.117 248.302 314.157 248.816Z" fill="black"/>
<path fill-rule="evenodd" clip-rule="evenodd" d="M175.367 77.5664C174.81 77.6424 174.253 77.7179 173.695 77.7939C174.253 77.7179 174.81 77.6424 175.367 77.5664Z" fill="black"/>
<path fill-rule="evenodd" clip-rule="evenodd" d="M293.3 244.429C293.299 244.934 293.298 245.439 293.297 245.943C293.298 245.437 293.299 244.933 293.3 244.429Z" fill="black"/>
<path fill-rule="evenodd" clip-rule="evenodd" d="M56.3642 174.992C56.309 175.496 56.2539 176 56.1992 176.502C56.2543 175.997 56.309 175.495 56.3642 174.992Z" fill="black"/>
<path fill-rule="evenodd" clip-rule="evenodd" d="M390.284 209.626C390.254 209.151 390.225 208.677 390.195 208.205C390.225 208.68 390.254 209.153 390.284 209.626Z" fill="black"/>
<path fill-rule="evenodd" clip-rule="evenodd" d="M102.388 272.25C101.812 272.24 101.236 272.232 100.66 272.222C101.243 271.822 101.817 271.908 102.388 272.25Z" fill="black"/>
<path fill-rule="evenodd" clip-rule="evenodd" d="M169.454 50.5575C169.444 50.0818 169.435 49.6061 169.426 49.132C169.722 49.6028 169.816 50.0757 169.454 50.5575Z" fill="black"/>
<path fill-rule="evenodd" clip-rule="evenodd" d="M123.473 44.5239C123.513 44.0547 123.553 43.5855 123.593 43.1191C123.552 43.5891 123.513 44.0563 123.473 44.5239Z" fill="black"/>
<path fill-rule="evenodd" clip-rule="evenodd" d="M313.817 208.778C313.797 208.26 313.777 207.743 313.758 207.227C313.778 207.744 313.797 208.261 313.817 208.778Z" fill="black"/>
<path fill-rule="evenodd" clip-rule="evenodd" d="M310.11 235.495C310.096 235.982 310.081 236.47 310.066 236.955C310.08 236.466 310.095 235.98 310.11 235.495Z" fill="black"/>
<path fill-rule="evenodd" clip-rule="evenodd" d="M243.824 282.532C244.185 282.531 244.546 282.53 244.903 282.531C244.541 282.532 244.182 282.532 243.824 282.532Z" fill="black"/>
<path fill-rule="evenodd" clip-rule="evenodd" d="M68.2227 282.779C68.5829 282.789 68.9428 282.798 69.2987 282.809C68.9372 282.799 68.5797 282.789 68.2227 282.779Z" fill="black"/>
<path fill-rule="evenodd" clip-rule="evenodd" d="M286.049 239.973C282.537 237.252 279.475 233.183 278.762 228.828C280.272 230.538 281.542 232.447 283.053 234.157C283.653 234.836 284.39 235.421 284.966 236.112C286.281 237.689 286.049 237.759 286.049 239.973Z" fill="black"/>
<path fill-rule="evenodd" clip-rule="evenodd" d="M273.71 221.582C272.024 217.689 270.56 212.967 270.854 208.673C272.017 212.572 274.716 217.47 273.71 221.582Z" fill="black"/>
<path fill-rule="evenodd" clip-rule="evenodd" d="M279.366 244.473C279.337 245.603 279.308 246.733 279.281 247.86C279.31 246.729 279.338 245.601 279.366 244.473Z" fill="black"/>
<path fill-rule="evenodd" clip-rule="evenodd" d="M56.4258 275.191C57.578 275.259 58.7306 275.328 59.8828 275.397C58.7253 275.412 57.5524 275.693 56.4258 275.191Z" fill="black"/>
<path fill-rule="evenodd" clip-rule="evenodd" d="M279.359 240.739C279.363 241.703 279.367 242.667 279.372 243.628C279.367 242.664 279.363 241.702 279.359 240.739Z" fill="black"/>
<path fill-rule="evenodd" clip-rule="evenodd" d="M232.015 129.002C231.367 128.968 230.718 128.934 230.074 128.9C230.725 128.934 231.37 128.968 232.015 129.002Z" fill="black"/>
<path fill-rule="evenodd" clip-rule="evenodd" d="M242.57 105.032C242.567 104.25 242.565 103.468 242.562 102.687C242.565 103.47 242.567 104.251 242.57 105.032Z" fill="black"/>
<path fill-rule="evenodd" clip-rule="evenodd" d="M228.639 124.65C228.609 124.099 228.317 123.822 227.762 123.819C228.876 123.215 229.169 123.492 228.639 124.65Z" fill="black"/>
<path fill-rule="evenodd" clip-rule="evenodd" d="M261.688 168.156C261.731 167.46 261.775 166.764 261.818 166.07C261.774 166.766 261.731 167.461 261.688 168.156Z" fill="black"/>
<path fill-rule="evenodd" clip-rule="evenodd" d="M72.7852 275.683C73.5625 275.628 74.3398 275.574 75.1171 275.52C74.3394 275.574 73.5625 275.628 72.7852 275.683Z" fill="black"/>
<path fill-rule="evenodd" clip-rule="evenodd" d="M236.043 181.203L238.356 181.187C237.585 181.193 236.814 181.198 236.043 181.203Z" fill="black"/>
<path fill-rule="evenodd" clip-rule="evenodd" d="M258.12 96.4009C257.582 96.4053 257.045 96.4098 256.512 96.4139C257.052 96.4094 257.586 96.4053 258.12 96.4009Z" fill="black"/>
<path fill-rule="evenodd" clip-rule="evenodd" d="M370.246 284.706C370.92 284.702 371.594 284.7 372.269 284.697C371.596 285.122 370.922 285.111 370.246 284.706Z" fill="black"/>
<path fill-rule="evenodd" clip-rule="evenodd" d="M87.1561 191.146C86.6989 191.159 86.2418 191.172 85.7891 191.185C86.2478 191.172 86.7017 191.159 87.1561 191.146Z" fill="black"/>
<path fill-rule="evenodd" clip-rule="evenodd" d="M329.98 89.8967C330.413 90.3152 329.844 91.2772 329.328 90.9457C329.545 90.5959 329.763 90.2465 329.98 89.8967Z" fill="black"/>
<path fill-rule="evenodd" clip-rule="evenodd" d="M118.621 233.505C118.64 232.913 118.66 232.32 118.679 231.73C118.659 232.322 118.64 232.914 118.621 233.505Z" fill="black"/>
<path fill-rule="evenodd" clip-rule="evenodd" d="M273.18 233.832C273.211 233.214 273.242 232.597 273.272 231.98C273.241 232.598 273.21 233.215 273.18 233.832Z" fill="black"/>
<path fill-rule="evenodd" clip-rule="evenodd" d="M381.043 169.474C381.069 170.092 381.094 170.711 381.12 171.327C381.094 170.708 381.068 170.091 381.043 169.474Z" fill="black"/>
<path fill-rule="evenodd" clip-rule="evenodd" d="M172.758 239.498C173.448 239.558 174.139 239.616 174.829 239.675C174.139 239.616 173.448 239.558 172.758 239.498Z" fill="black"/>
<path fill-rule="evenodd" clip-rule="evenodd" d="M267.457 192.074C267.491 191.46 267.525 190.846 267.558 190.233C267.524 190.847 267.491 191.461 267.457 192.074Z" fill="black"/>
<path fill-rule="evenodd" clip-rule="evenodd" d="M147.477 203.758C148.165 203.822 148.853 203.886 149.541 203.949C148.853 203.885 148.165 203.822 147.477 203.758Z" fill="black"/>
<path fill-rule="evenodd" clip-rule="evenodd" d="M208.372 257.468C207.928 257.468 207.485 257.468 207.047 257.468C207.492 257.468 207.932 257.468 208.372 257.468Z" fill="black"/>
<path fill-rule="evenodd" clip-rule="evenodd" d="M247.465 107.342C247.439 107.916 247.412 108.49 247.387 109.061C247.413 108.486 247.439 107.914 247.465 107.342Z" fill="black"/>
<path fill-rule="evenodd" clip-rule="evenodd" d="M257.281 246.574C257.963 246.088 258.625 246.409 259.29 246.619C258.62 246.604 257.951 246.589 257.281 246.574Z" fill="black"/>
<path fill-rule="evenodd" clip-rule="evenodd" d="M177.64 82.3323C177.192 82.314 176.744 82.2953 176.301 82.275C176.751 82.2933 177.195 82.3128 177.64 82.3323Z" fill="black"/>
<path fill-rule="evenodd" clip-rule="evenodd" d="M286.238 257.129C286.197 256.557 286.157 255.986 286.117 255.417C286.157 255.989 286.197 256.559 286.238 257.129Z" fill="black"/>
<path fill-rule="evenodd" clip-rule="evenodd" d="M249.56 192.62C249.191 192.622 248.822 192.625 248.457 192.628C248.828 192.626 249.194 192.623 249.56 192.62Z" fill="black"/>
<path fill-rule="evenodd" clip-rule="evenodd" d="M241.512 248.334C242.065 248.263 242.618 248.191 243.17 248.119C242.617 248.191 242.064 248.263 241.512 248.334Z" fill="black"/>
<path fill-rule="evenodd" clip-rule="evenodd" d="M217.602 178.987C218.201 178.983 218.8 178.979 219.399 178.976C218.802 179.328 218.202 179.262 217.602 178.987Z" fill="black"/>
<path fill-rule="evenodd" clip-rule="evenodd" d="M248.632 120.641C248.285 120.637 247.939 120.634 247.598 120.631C247.945 120.634 248.288 120.637 248.632 120.641Z" fill="black"/>
<path fill-rule="evenodd" clip-rule="evenodd" d="M146.34 209.06C145.983 209.056 145.626 209.051 145.273 209.045C145.632 209.051 145.986 209.056 146.34 209.06Z" fill="black"/>
<path fill-rule="evenodd" clip-rule="evenodd" d="M77.3789 185.596C77.9767 185.602 78.5745 185.608 79.1722 185.614C78.5708 185.953 77.973 185.962 77.3789 185.596Z" fill="black"/>
<path fill-rule="evenodd" clip-rule="evenodd" d="M381.1 186.587C381.062 187.044 381.024 187.501 380.988 187.956C381.026 187.498 381.063 187.042 381.1 186.587Z" fill="black"/>
<path fill-rule="evenodd" clip-rule="evenodd" d="M228.918 260.064C228.969 259.565 229.02 259.066 229.07 258.568C229.019 259.068 228.969 259.566 228.918 260.064Z" fill="black"/>
<path fill-rule="evenodd" clip-rule="evenodd" d="M132.258 200.581C132.862 200.59 133.466 200.599 134.07 200.607C133.46 201.029 132.859 200.763 132.258 200.581Z" fill="black"/>
<path fill-rule="evenodd" clip-rule="evenodd" d="M220.875 272.939C220.928 273.463 220.981 273.988 221.034 274.511C220.981 273.986 220.928 273.463 220.875 272.939Z" fill="black"/>
<path fill-rule="evenodd" clip-rule="evenodd" d="M273.19 238.446C273.189 237.956 273.188 237.467 273.188 236.98C273.188 237.47 273.189 237.958 273.19 238.446Z" fill="black"/>
<path fill-rule="evenodd" clip-rule="evenodd" d="M60.168 275.466C60.7366 275.541 61.3052 275.616 61.8734 275.691C61.3048 275.616 60.7362 275.541 60.168 275.466Z" fill="black"/>
<path fill-rule="evenodd" clip-rule="evenodd" d="M70.8359 275.697C71.3972 275.237 71.9671 275.378 72.5389 275.672C71.9711 275.681 71.4033 275.689 70.8359 275.697Z" fill="black"/>
<path fill-rule="evenodd" clip-rule="evenodd" d="M173.406 208.293C173.962 208.225 174.518 208.156 175.074 208.088C174.518 208.156 173.962 208.225 173.406 208.293Z" fill="black"/>
<path fill-rule="evenodd" clip-rule="evenodd" d="M235.188 278.287C235.754 278.211 236.321 278.136 236.887 278.06C236.32 278.136 235.754 278.211 235.188 278.287Z" fill="black"/>
<path fill-rule="evenodd" clip-rule="evenodd" d="M247.181 110.811C247.156 111.279 247.13 111.747 247.105 112.212C247.131 111.743 247.156 111.277 247.181 110.811Z" fill="black"/>
<path fill-rule="evenodd" clip-rule="evenodd" d="M111.09 222.315C111.141 221.818 111.193 221.321 111.244 220.826C111.192 221.324 111.141 221.819 111.09 222.315Z" fill="black"/>
<path fill-rule="evenodd" clip-rule="evenodd" d="M242.719 98.7158C242.734 98.2287 242.749 97.7416 242.764 97.257C242.75 97.7449 242.734 98.2303 242.719 98.7158Z" fill="black"/>
<path fill-rule="evenodd" clip-rule="evenodd" d="M132.359 216.792C132.41 217.29 132.462 217.787 132.512 218.282C132.461 217.784 132.41 217.288 132.359 216.792Z" fill="black"/>
<path fill-rule="evenodd" clip-rule="evenodd" d="M227.567 273.072C227.901 274.054 227.778 276.339 226.83 277.031C224.864 278.467 224.662 275.844 224.272 274.427C223.189 270.496 221.446 266.107 221.002 262.066C220.866 260.827 220.792 258.505 222.428 258.087C224.007 257.684 224.806 260.191 225.351 261.479C226.862 265.053 227.738 269.198 227.567 273.072Z" fill="black"/>
<path fill-rule="evenodd" clip-rule="evenodd" d="M227.566 273.072C227.589 272.565 227.611 272.057 227.634 271.552C227.611 272.06 227.589 272.566 227.566 273.072Z" fill="black"/>
</svg>
