<svg width="654" height="490" viewBox="0 0 654 490" fill="none" xmlns="http://www.w3.org/2000/svg">
<path fill-rule="evenodd" clip-rule="evenodd" d="M349.504 138.769C358.992 145.389 371.7 141.508 380.918 136.525C381.471 140.385 388.692 140.019 391.278 141.879C395.355 144.813 399.923 150.152 403.122 154.041C410.509 163.025 415.074 175.58 419.209 186.344C423.467 197.428 428.726 206.936 439.673 213.099C443.21 215.09 446.635 217.76 450.265 219.628C454.605 221.861 459.632 222.953 464.405 222.595C470.092 222.168 474.998 221.99 480.573 220.92C486.53 219.776 492.888 218.578 498.789 218.759C503.168 218.893 507.589 218.002 511.858 218.204C514.478 218.327 517.076 218.106 519.692 218.215C520.729 218.258 521.539 218.25 522.608 218.346C525.143 218.574 525.184 218.3 525.556 220.544C525.995 223.197 524.297 227.504 524.13 230.227C523.936 233.391 524.473 236.515 524.357 239.652C524.227 243.177 523.211 242.853 520.128 244.468C517.138 246.035 514.297 247.545 511.206 248.927C502.353 252.886 493.005 256.761 483.239 257.852C471.523 259.161 459.317 257.773 447.675 257.269C441.188 256.989 434.465 255.877 428.225 254.286C423.315 253.034 415.357 250.492 411.522 247.2C415.911 247.004 414.372 243.11 411.81 241.389C407.141 238.252 405.05 239.758 406.167 245.019C400.672 243.221 395.758 238.864 391.079 235.377C385.064 230.893 376.138 224.155 375.782 216.088C375.38 206.991 364.654 188.631 365.77 198.204C366.773 206.807 370.54 218.438 365.77 226.497C365.563 221.666 356.943 213.726 352.885 212.365C345.668 209.946 337.099 210.32 329.581 210.782C315.653 211.636 301.682 214.372 288.319 218.059C274.837 221.779 260.406 226.611 249.21 235.442C247.831 236.531 246.542 238.335 245.139 239.273C244.649 239.6 243.182 239.414 242.485 239.776C240.629 240.738 243.445 240.9 240.393 241.126C239.732 241.174 237.999 240.467 237.549 240.263C230.168 236.916 230.587 227.965 231.027 221.107C232.038 205.346 237.133 189.444 243.356 175.059C248.923 162.19 256.517 148.396 267.526 139.386C272.342 135.445 277.124 130.822 282.672 128.013C284.779 126.947 288.568 125.277 287.737 122.089C286.851 118.685 282.822 120.342 279.99 120.206C265.277 119.498 253.416 113.31 242.277 103.903C230.861 94.2623 218.866 91.0062 204.696 87.3623C200.616 86.3135 172.561 79.5791 168.536 79.6143C164.082 79.6534 159.646 79.7985 155.196 79.8825C152.551 79.9326 149.903 79.9268 147.255 80.1387C145.123 80.3096 142.775 81.1898 140.651 80.9619C138.66 80.7483 138.816 81.3383 137.837 79.8606C137.148 78.821 137.334 76.6681 137.135 75.4016C136.961 74.2958 136.787 73.1894 136.613 72.083C136.063 68.5928 133.495 66.8081 136.326 65.3972C140.485 63.3242 149.053 61.4444 153.602 60.612C157.957 59.8159 182.612 53.9209 190.854 52.3177C194.96 51.5193 244.674 49.6697 246.529 49.657C264.389 49.5344 302.478 59.3617 311.035 67.2164C319.591 75.0712 319.6 80.7679 323.298 83.9455C327.43 87.4961 333.024 91.9119 335.931 96.5148C337.896 99.6262 338.651 107.859 342.669 109.071C339.75 118.403 340.803 132.697 349.504 138.769Z" fill="#F0D57B"/>
<path fill-rule="evenodd" clip-rule="evenodd" d="M85.7695 109.948C86.9027 110.21 87.4512 109.76 87.6478 108.59C86.9056 109.127 86.3375 109.538 85.7695 109.948ZM100.605 387.037C99.6001 387.092 100.595 389.636 100.723 389.625C100.683 388.763 100.644 387.9 100.605 387.037ZM374.614 72.4043C375.923 72.6241 383.297 74.6384 380.814 70.5298C379.481 68.3223 376.79 72.406 374.614 72.4043ZM350.251 122.073C346.5 124.146 358.072 131.467 359.728 131.925C361.345 132.374 373.541 133.989 373.687 131.306C369.431 130.365 365.155 130.933 360.984 129.676C355.882 128.138 353.911 125.606 350.251 122.073ZM532.646 235.124C532.87 231.786 533.006 228.543 533.685 225.257C533.825 224.575 534.975 221.429 534.719 221.02C534.319 220.379 531.261 219.843 530.63 219.628C530.144 226.167 529.593 232.685 528.683 239.185C530.819 238.449 530.262 235.514 532.646 235.124ZM133.718 81.9723C133.718 78.3942 132.764 73.07 132.05 69.5972C131.465 66.7585 129.385 63.9968 128.195 61.1414C127.824 63.1068 126.524 66.1089 126.94 68.1134C127.483 70.7266 128.722 70.2974 128.722 73.5136C128.722 75.4692 128.399 77.6963 128.755 79.6197C129.455 83.4083 130.578 82.8025 133.718 81.9723ZM409.37 54.3638C405.076 51.9871 397.735 56.5076 393.885 58.5863C389.315 61.0545 384.717 67.6894 382.863 72.5085C384.679 72.3071 386.215 72.2731 387.535 71.2962C388.214 70.7934 388.93 69.3728 389.571 68.7025C391.227 66.9731 393.312 65.3627 395.128 63.7891C399.457 60.039 404.138 56.7204 409.37 54.3638ZM434.754 114.27C438.321 113.643 442.433 112.025 443.453 108.012C444.44 104.134 441.594 102.256 438.116 101.774C430.136 100.666 424.74 112.232 434.754 114.27ZM406.911 102.301C410.844 105.045 415.145 104.698 419.04 101.632C422.16 99.1779 425.205 94.9808 421.669 91.9804C415.99 87.1596 407.849 97.0239 406.911 102.301ZM576.599 405.936C574.136 406.087 570.165 408.658 568.005 409.925C565.296 411.513 562.445 413.189 559.823 414.654C554.385 417.695 548.274 421.109 542.243 423.39C536.33 425.626 530.367 428.439 524.329 431.083C521.746 432.214 518.131 433.536 515.202 433.229C512.522 432.948 509.707 430.195 507.305 428.989C503.576 427.116 501.152 424.685 498.172 421.688C496.874 420.383 493.57 414.898 491.817 414.693C490.32 414.518 486.227 417.79 485.058 418.492C483.251 419.578 480.524 421.359 478.808 422.724C477.108 424.075 477.014 423.082 476.895 424.857C476.814 426.064 479.584 428.431 480.438 429.404C483.308 432.67 486.303 435.867 489.013 439.275C491.341 442.203 493.506 445.345 495.506 448.507C497.445 451.573 501.037 455.122 501.819 458.707C506.33 454.296 510.76 456.448 516.43 455.118C518.885 454.543 521.065 453.183 523.365 452.378C525.281 451.706 527.34 451.486 529.313 451.051C538.064 449.121 546.554 445.343 554.739 441.966C556.65 441.177 558.237 439.668 560.084 438.756C562.063 437.779 564.225 437.453 566.22 436.554C571.354 434.242 576.559 431.81 581.635 429.335C587.081 426.68 592.819 424.384 598.162 421.581C601.39 419.888 607.652 416.853 609.144 413.268C605.577 413.907 602.584 415.936 599.281 416.963C593.457 418.773 593.742 413.296 593.742 409.121C591.793 409.121 587.879 411.914 586.014 412.781C583.604 413.9 580.444 416.858 577.768 417.057C571.149 417.549 574.347 408.85 576.599 405.936ZM342.751 108.998C339.053 107.883 338.314 100.823 336.748 97.903C334.438 93.596 330.012 90.1076 326.481 86.7419C323.233 83.6465 319.756 81.0276 316.112 78.4282C312.379 75.7649 309.797 72.2616 306.364 69.3251C292.029 57.0616 274.524 52.9099 256.023 52.269C237.438 51.6252 218.681 53.6757 200.007 54.8678C197.627 55.0197 195.501 55.0865 193.127 55.4875C192.556 55.3154 191.987 55.1434 191.416 54.9714L190.096 55.9213C189.18 56.0559 187.878 56.1957 187.035 56.3591C182.684 57.202 178.334 58.3233 173.985 59.306C164.764 61.3882 155.85 63.3024 146.557 65.2476C144.341 65.7113 138.952 66.0094 137.214 67.4138C135.865 68.5035 136.369 68.9327 136.684 70.9343C136.974 72.7754 137.263 74.6159 137.553 76.457C138.116 80.0311 137.872 81.2646 141.74 80.8947C145.065 80.5765 148.307 79.9873 151.67 79.8349C156.504 79.6145 161.419 79.3343 166.255 79.4298C171.045 79.5248 176.564 78.7308 181.254 79.958C179.808 76.9305 178.956 67.7601 182.793 74.1062C184.597 77.0893 184.15 80.7451 188.028 81.81C191.189 82.6782 194.628 83.1851 197.887 84.009C210.732 87.2574 224.121 89.4966 235.08 97.9542C245.82 106.244 255.595 115.786 269.342 118.812C272.64 119.538 276.649 119.961 280.121 120.128C282.143 120.225 286.163 119.002 287.537 120.826C290.873 125.254 278.516 130.464 276.039 132.67C271.004 137.155 265.313 140.66 260.953 145.894C256.397 151.363 252.481 157.324 249.125 163.562C241.575 177.597 236.243 192.479 233.143 208.099C231.676 215.493 230.018 223.963 231.337 231.529C231.869 234.582 233.581 237.622 236.217 239.362C237.074 239.928 238.148 240.32 239.138 240.618C240.074 240.924 241.033 241.106 242.017 241.161C242.126 240.608 242.336 240.099 242.645 239.633C243.342 239.272 244.808 239.458 245.297 239.131C246.7 238.194 247.987 236.39 249.366 235.302C251.759 233.414 254.344 231.619 256.977 230.094C263.618 226.25 270.848 223.988 277.954 221.57C292.583 216.591 307.906 212.51 323.439 210.99C331.637 210.188 340.849 209.695 348.973 211.215C354.212 212.195 364.842 216.792 365.115 223.145C369.866 215.115 366.854 206.667 365.834 198.084C364.694 188.49 362.738 179.43 365.963 169.962C368.155 163.522 371.928 155.024 378.341 151.735C380.638 150.557 385.539 151.268 383.838 155.16C383.794 155.26 380.596 157.079 380.141 157.608C378.585 159.418 377.407 161.784 376.248 163.862C367.031 180.384 375.232 198.424 375.837 215.958C376.117 224.053 385.122 230.761 391.123 235.237C395.786 238.715 400.719 243.08 406.2 244.874C405.083 239.616 407.172 238.111 411.837 241.246C414.398 242.967 415.935 246.857 411.55 247.054C415.008 250.023 422.071 252.323 426.465 253.466C431.615 254.804 436.884 255.997 442.248 256.755C452.958 258.269 463.863 257.788 474.632 257.899C485.719 258.012 494.971 255.055 505.157 251.213C509.833 249.449 514.228 247.409 518.675 245.092C520.183 244.306 523.605 243.394 524.434 241.673C525.503 239.457 523.906 233.709 524.001 231.175C524.102 228.477 526.106 222.871 525.493 220.413C524.909 218.06 526.392 219.712 523.999 218.536C523.352 218.218 521.902 218.053 521.11 217.963C516.68 217.465 511.443 217.875 507.139 218.429C502.207 219.064 497.637 218.207 492.843 218.774C486.187 219.559 479.358 220.737 472.929 222.641C462.784 225.645 453.395 225.432 444.329 219.684C440.494 217.253 435.977 214.758 432.69 211.43C428.272 206.958 425.034 200.591 422.539 194.881C417.051 182.319 413.053 169.13 405.539 157.54C402.319 152.573 397.841 148.532 393.705 144.302C391.749 142.302 390.624 141.15 387.944 140.289C385.782 139.595 381.392 139.383 380.969 136.438C371.759 141.419 359.063 145.293 349.58 138.68C340.887 132.619 339.837 118.317 342.751 108.998ZM342.274 229.042C330.271 230.365 318.648 231.357 306.843 234.087C294.934 236.841 282.511 241.04 271.206 245.185C266.772 246.811 261.152 247.958 257.138 250.476C254.158 252.344 254.53 252.274 256.669 255.716C258.101 258.021 259.305 260.601 260.836 262.814C267.062 271.809 275.591 279.503 282.747 287.665C290.653 296.681 299.917 305.608 308.977 313.509C317.692 321.107 326.284 329.248 335.55 336.076C354.863 350.307 374.423 364.342 394.495 377.484C405.642 384.783 416.523 392.261 427.701 399.612C433.512 403.434 438.936 407.655 445.111 410.848C451.481 414.142 459.265 418.756 464.509 423.62C468.171 417.153 475.913 412.966 481.706 408.783C482.863 407.948 484.107 406.819 485.215 405.882C487.324 404.1 487.43 404.397 486.304 402.358C485.064 400.116 481.684 398.309 479.914 396.454C478.295 394.756 477.226 393.036 475.756 391.221C470.866 385.181 464.567 380.166 459.094 374.672C453.824 369.382 448.925 364.011 443.774 358.378C441.223 355.589 438.325 353.582 435.879 350.759C432.482 346.839 429.133 342.824 425.778 338.864C419.76 331.758 414.703 324.216 408.847 317.073C398.191 304.077 390.108 289.385 380.781 275.444C375.057 266.89 367.979 258.903 362.775 250.008C359.909 245.109 357.148 240.227 355.095 234.875C353.925 231.825 354.207 231.587 351.352 230.695C348.596 229.834 345.118 229.237 342.274 229.042ZM193.155 353.855C199.231 353.269 205.482 355.284 211.379 355.533C217.112 355.775 222.977 356.398 228.72 356.021C235.024 355.608 241.364 355.62 247.643 355.815C254.45 356.026 260.934 354.925 267.495 353.964C274.127 352.993 281.351 349.98 287.834 348.052C291.669 346.912 295.359 345.433 299.212 344.357C303.11 343.27 306.215 340.687 309.767 338.703C312.189 337.351 317.327 335.712 316.251 332.93C315.295 330.457 308.924 326.745 306.84 324.949C300.676 319.637 294.429 314.365 288.719 308.534C276.61 296.167 265.07 283.831 254.84 269.873C252.41 276.742 249.727 283.711 244.354 288.94C239.79 293.383 234.528 297.191 229.652 301.237C220.182 309.093 208.788 314.69 197.477 319.215C191.88 321.455 186.468 322.891 180.828 324.872C178.158 325.809 175.315 325.626 172.812 326.215C169.018 327.107 165.056 328.951 161.214 330.034C155.798 331.561 150.322 332.632 144.66 332.146C137.29 331.512 131.164 327.903 124.452 325.292C124.801 327.901 122.796 337.145 124.282 339.098C125.106 340.179 130.379 340.624 132.012 340.988C138.677 342.474 145.772 343.373 152.431 344.235C159.493 345.148 166.154 348.64 173.044 350.265C179.546 351.798 186.729 353.227 193.155 353.855ZM74.4898 391.903C74.9141 396.852 75.5333 404.332 79.5441 407.893C81.0803 404.168 80.2283 399.134 80.9078 395.166C81.3126 392.802 81.8617 390.475 82.4331 388.147C82.758 386.826 82.9569 383.015 83.648 382.248C88.6091 376.736 89.6141 393.141 90.1758 395.047C92.0116 390.624 91.4062 385.713 93.0367 381.392C94.9869 376.222 98.0363 380.382 99.699 383.628C100.19 376.49 97.3826 369.296 97.4821 362.021C97.589 354.265 98.9091 349.104 104.857 343.881C107.7 341.384 115.295 338.328 116.664 335.187C116.897 334.655 116.837 330.717 116.686 330.168C116.047 327.86 116.285 328.335 113.481 327.663C111.024 327.073 108.736 326.28 106.25 325.912C99.4765 324.909 94.2573 324.767 88.5165 328.981C82.5464 333.363 79.7085 341.16 78.116 348.159C74.8624 362.454 73.363 377.275 74.4898 391.903ZM543.411 234.022C553.557 232.73 563.6 228.584 573.606 227.894C579.622 227.48 586.33 226.103 592.224 224.842C596.1 224.013 604.198 223.33 606.362 219.584C603.749 220.387 600.301 222.218 597.569 222.289C595.561 222.342 594.861 222.721 594.464 219.967C594.274 218.649 594.703 217.068 595.503 216.032C596.882 214.248 599.835 213.376 601.84 212.241C604.543 210.712 607.057 209.076 609.602 207.296C608.826 205.372 597.979 209.231 596.28 209.841C594.174 210.597 592.038 211.33 590.017 212.295C588.69 212.928 586.391 214.972 584.892 214.917C581.105 214.78 581.446 210.214 583.281 207.591C585.881 203.875 591.064 201.109 594.554 198.221C590.822 198.379 587.431 200.558 584.002 201.862C580.212 203.303 576.371 204.94 572.663 206.548C563.562 210.495 553.867 213.2 544.613 217.008C547.395 221.749 544.233 224.082 539.689 222.34C539.004 226.338 538.737 230.41 538.737 234.457C540.295 234.312 541.853 234.167 543.411 234.022ZM121.662 72.677C121.713 71.8014 122.377 67.5294 121.59 66.7901C121.314 66.5318 116.888 67.1543 116.453 67.2182C113.574 67.6405 111.195 68.7169 108.5 69.8642C101.902 72.6718 95.2306 75.2045 88.6459 78.0312C76.3176 83.3232 64.1059 88.2378 52.5969 95.1183C61.1496 94.3957 69.899 91.9206 77.6859 88.3137C80.9797 86.7885 93.3425 76.5324 93.7065 85.456C93.8675 89.4052 90.4633 90.8096 87.5892 92.7122C84.07 95.0412 80.6209 97.3512 77.353 100.017C75.615 101.436 61.7596 110.745 62.43 112.234C65.9492 111.394 69.7328 108.74 72.8323 106.889C76.2819 104.829 79.9006 102.997 83.4623 101.125C85.405 100.103 89.8377 96.5544 91.9725 98.1061C95.671 100.795 90.6018 105.791 88.9362 107.629C92.1737 107.293 96.5116 102.585 99.0304 100.622C102.216 98.14 105.565 95.9226 108.798 93.4797C112.177 90.9264 115.715 88.5318 119.146 86.0405C122.35 83.7138 121.831 83.7271 121.517 79.8936C121.319 77.4863 121.524 75.0802 121.662 72.677ZM261.785 236.831C265.954 236.404 269.69 233.842 273.692 233.04C277.635 232.249 281.358 230.055 285.236 228.812C290.337 227.175 295.5 225.964 300.769 225.041C305.191 224.265 309.459 222.585 313.886 222.071C323.019 221.011 331.74 219.786 340.936 221.092C345.489 221.738 349.476 222.693 353.546 224.866C358.077 227.286 358.524 227.166 363.388 225.027C361.867 220.937 356.097 218.222 352.226 217.39C346.392 216.135 340.277 216.701 334.337 216.898C324.077 217.24 313.426 219.467 303.596 222.227C284.752 227.518 266.642 233.68 249.322 242.496C250.787 244.506 252.332 242.062 254.03 241.028C256.51 239.517 259.255 238.298 261.785 236.831ZM422.095 84.1977C418.808 83.5487 415.522 83.2875 412.24 82.5068C408.092 81.5201 406.275 83.0211 402.415 84.9491C403.96 85.6522 405.929 86.8696 407.572 87.2942C410.466 88.0422 409.498 87.4375 412.248 86.3374C414.689 85.3611 419.283 84.9681 421.794 85.4773C428.52 86.8408 427.441 94.772 426.797 100.059C430.111 98.4501 430.531 95.4215 431.709 92.34C432.984 89.0047 434.356 85.9761 435.338 82.5085C431.142 83.6051 426.454 84.2437 422.095 84.1977ZM474.887 209.864C486.819 205.414 500.219 206.55 512.492 205.513C517.216 205.114 523.745 205.829 528.394 207.341C530.622 208.065 533.129 208.596 535.242 209.577C536.376 210.104 537.293 211.369 538.459 211.76C540.743 212.524 540.625 212.075 543.073 210.735C545.219 209.56 547.382 208.439 549.587 207.382C562.93 200.987 576.395 195.317 590.125 189.985C593.691 188.6 597.236 187.668 600.899 186.46C603.212 185.697 607.257 184.142 609.746 184.933C618.422 187.689 605.799 198.044 602.954 200.711C606.494 200.546 612.996 198.896 615.044 202.83C615.894 204.461 615.596 206.846 614.834 208.478C614.277 209.673 613.062 210.363 612.449 211.491C611.293 213.618 611.738 212.854 611.914 214.984C612.401 220.899 611.242 223.518 606.308 227.313C601.645 230.899 595.614 232.428 590.052 233.998C580.326 236.744 570.122 237.522 560.271 239.892C555.638 241.007 550.803 241.728 546.157 242.569C540.998 243.504 534.929 242.78 530.562 245.641C521.833 251.359 513.83 258.497 504.143 262.633C495.592 266.284 487.622 268.07 478.435 269.646C469.787 271.13 460.829 270.076 452.479 270.289C442.713 270.538 433.654 269.872 424.344 267.06C414.878 264.2 405.745 260.541 397.691 255.073C393.139 251.982 388.609 249.004 384.327 245.525C379.105 241.28 375.55 236.252 371.644 230.799C369.401 233.218 367.607 234.56 364.671 236.106C373.636 245.946 381.207 257.36 389.716 267.605C393.262 271.876 396.203 276.48 399.565 280.84C402.893 285.157 405.106 290.497 408.76 294.513C412.17 298.261 414.48 302.605 417.372 306.764C420.918 311.864 425.688 316.327 429.463 321.291C433.359 326.414 437.346 331.468 441.578 336.273C445.499 340.725 449.672 345.112 453.341 349.739C460.803 359.151 469.645 367.657 478.131 376.158C479.871 377.9 481.782 379.588 483.325 381.509C484.464 382.925 485.573 383.863 486.944 385.338C488.093 386.573 489.497 388.732 490.436 390.225C492.094 392.863 493.087 394.021 495.266 396.302C496.702 397.806 499.568 400.8 498.953 403.134C498.576 404.566 496.84 404.615 496.352 405.812C496.08 406.478 496.642 407.328 496.621 407.997C496.518 411.282 498.113 412.193 500.734 414.599C503.377 417.026 506.79 418.966 509.902 420.776C512.249 422.141 514.684 423.996 517.283 422.751C519.089 421.884 520.966 420.233 522.866 419.254C527.676 416.774 532.871 414.549 537.775 412.551C548.737 408.084 559.725 403.222 570.246 397.5C576.181 394.272 582.656 391.076 589.191 389.519C592.134 388.818 595.24 387.054 597.406 389.673C599.557 392.27 598.17 395.811 596.964 398.437C600.007 397.998 604.042 397.141 606.012 400.155C606.758 401.295 606.274 404.308 607.089 404.971C607.448 405.264 610.355 404.626 610.929 404.776C618.349 406.727 615.762 417.712 612.03 421.849C603.504 431.3 590.784 435.96 579.687 441.405C576.783 442.829 573.842 444.048 570.85 445.219C567.018 446.72 563.512 448.616 559.621 450.017C553.14 452.351 546.876 455.742 540.559 458.319C534.109 460.951 526.928 462.264 520.152 464.216C514.405 465.871 502.206 469.649 502.082 460.372C496.656 464.593 489.719 450.814 486.957 447.561C484.466 444.626 481.988 441.645 479.625 438.607C477.467 435.833 475.347 429.089 472.521 427.282C470.794 426.177 468.882 428.387 466.225 428.914C461.613 429.829 459.328 428.532 455.437 426.392C448.31 422.47 441.738 417.648 434.431 414.044C427.197 410.475 421.024 405.299 414.239 400.961C407.737 396.805 400.704 393.341 394.6 388.724C382.63 379.67 368.71 373.416 357.479 363.36C351.69 358.176 344.897 353.859 338.718 349.053C335.903 346.862 332.926 344.999 330.002 342.972C328.356 341.832 326.773 340.136 324.971 339.268C323.183 338.407 324.091 338.069 322.419 338.72C321.466 339.09 320.373 340.818 319.588 341.514C307.985 351.811 294.882 356.681 280.239 361.275C276.923 362.316 273.838 363.446 270.473 364.326C267.263 365.165 264.914 366.61 261.421 367.115C254.976 368.047 248.629 368.097 242.139 368.135C235.748 368.173 229.173 368.27 222.968 368.822C216.581 369.391 209.939 368.297 203.67 367.78C200.498 367.518 197.219 367.049 194.04 366.566C190.941 366.095 188.323 366.693 185.273 366.36C176.699 365.425 169.067 363.483 160.897 360.69C153.443 358.141 145.83 357.682 138.287 355.553C134.277 354.422 129.736 353.491 126.041 351.597C123.942 350.522 120.852 346.654 119.907 349.396C118.787 347.953 118.072 346.24 118.195 344.384C115.326 345.087 113.875 348.79 111.77 350.729C109.437 352.878 107.14 354.288 105.55 357.198C101.992 363.71 104.304 372.607 105.706 379.437C107.176 386.601 108.505 394.707 107.655 402.019C107.346 404.684 106.639 408.582 103.356 408.757C100.015 408.935 98.0582 403.695 96.8755 401.397C94.3182 407.487 90.9629 409.631 86.107 404.446C85.1836 407.9 87.6702 421.855 80.7342 420.239C75.5345 419.028 71.1983 407.663 69.6517 403.391C64.5601 389.331 65.361 373.188 67.1238 358.573C68.8336 344.396 70.4199 328.8 81.9215 318.638C86.8975 314.241 91.7528 313.52 98.0622 313.682C104.401 313.845 113.304 316.676 117.529 321.512C118.576 319.723 116.476 317.784 117.32 315.931C118.447 313.458 120.802 314.493 123.085 315.054C128.243 316.318 133.036 318.678 138.347 319.57C141.067 320.027 143.867 319.888 146.588 320.164C148.983 320.407 149.62 319.791 151.699 319.425C153.337 319.136 155.824 319.547 157.37 319.011C158.016 318.786 159.096 317.622 159.902 317.228C161.216 316.585 163.182 316.292 164.625 316.087C173.303 314.852 181.6 311.501 190.004 308.646C200.214 305.177 210.131 301.834 219.186 295.671C227.476 290.028 236.401 284.464 243.248 277.085C246.319 273.775 248.095 269.976 249.758 265.859C251.219 262.241 249.332 261.777 247.56 258.418C246.004 255.467 245.73 252.684 243.047 250.901C239.127 248.296 234.492 247.795 230.641 244.74C225.907 240.984 226.069 235.001 225.027 229.28C222.896 217.583 224.609 203.463 227.515 192.057C230.707 179.529 235.376 167.411 241.663 156.123C247.591 145.48 255.607 137.498 264.222 129.138C262.056 127.635 258.317 127.411 255.737 126.257C251.97 124.571 248.887 122.071 245.604 119.749C239.473 115.412 233.918 110.67 227.336 107.016C221.224 103.621 214.776 100.748 208.258 98.5566C204.952 97.4444 201.032 97.7263 197.57 96.8035C194.868 96.0832 191.799 95.6436 189.182 94.6816C187.832 94.1857 186.648 93.096 185.257 92.787C170.132 89.4293 153.389 90.0979 137.683 90.0127C134.329 89.9943 128.973 89.0122 125.859 90.4707C122.608 91.993 118.966 95.7449 116.055 97.8984C109.204 102.968 101.967 107.368 95.3134 112.666C87.4351 118.938 79.3877 125.154 71.2213 131.064C68.4197 133.091 63.3068 138.003 61.0214 133.026C59.0614 128.756 63.0055 124.471 64.4411 120.831C60.4033 123.14 51.9685 129.545 49.863 122.136C47.8272 114.973 54.2843 108.256 58.5164 103.395C53.7686 104.362 44.6179 107.043 40.3237 103.748C35.9214 100.369 39.6982 92.9895 42.8316 90.397C52.3801 82.497 65.1195 77.6307 76.5498 73.1735C88.1492 68.6502 99.8318 65.2631 111.732 62.097C114.181 61.4452 116.286 59.3774 118.827 59.1495C121.754 58.8866 120.681 60.8014 122.073 57.5518C122.678 56.1382 122.454 54.4104 123.251 53.0561C127.123 46.4764 132.094 56.3096 133.587 59.7467C141.863 56.3505 150.3 54.7464 158.756 52.2466C165.439 50.2708 172.309 48.1133 179.072 46.2043C182.715 45.1756 186.399 44.6618 190.082 43.9829C193.601 43.3345 197.784 42.2856 201.529 41.9243C207.916 41.307 214.689 40.7086 220.986 40.5636C251.744 39.8537 284.444 37.8969 309.361 59.8382C309.361 61.8387 315.777 67.2498 317.36 68.3522C321.771 71.4257 325.684 74.4433 329.774 78.0933C334.195 82.039 337.73 85.4508 340.352 90.809C342.61 95.4261 343.162 100.521 344.367 105.477C347.581 101.819 348.571 105.259 349.189 108.27C349.855 111.506 350.647 113.451 352.716 116.104C357.136 121.777 362.943 124.751 370.046 125.453C371.35 125.582 375.665 125.949 376.879 125.45C379.081 124.547 378.422 124.006 379.367 121.575C380.087 119.722 381.148 118.366 382.087 116.651C383.234 115.834 383.668 114.742 383.388 113.376C383.419 112.774 383.45 112.173 383.481 111.572C385.87 110.17 388.589 116.628 389.467 117.793C392.015 121.172 394.762 121.746 398.901 121.746C398.631 119.485 398.032 119.357 400.163 118.324C401.478 117.686 403.362 118.134 404.609 118.64C408.193 120.092 408.116 120.805 412.167 119.146C415.162 117.92 417.844 116.325 420.555 114.576C422.861 113.087 423.224 112.834 424.11 110.231C424.788 108.24 424.679 105.592 424.932 103.527C422.197 105.166 420.595 108.329 417.594 109.956C414.549 111.607 410.877 112.639 407.563 111.12C400.666 107.958 402.61 99.213 404.644 93.665C401.491 93.1247 398.191 91.2509 396.175 88.7821C394.818 87.1193 393.836 85.0469 392.384 83.1477C389.074 78.8177 380.516 77.7809 378.894 84.3933C378.068 87.7597 380.028 88.9616 383.119 89.3896C386.798 89.8988 387.695 88.9944 386.355 93.3382C384.879 94.0971 384.42 95.2794 384.98 96.8846C384.888 97.4185 384.796 97.9525 384.704 98.487C384.369 99.8321 383.651 100.872 383.259 102.165C382.147 105.829 381.954 106.833 377.806 107.95C370.53 109.91 362.079 110.932 354.578 111.574C352.083 111.788 349.438 111.761 350.265 108.377C350.947 105.582 355.593 104.636 357.948 103.774C360.678 102.774 365.719 102.309 368.057 100.867C370.549 99.3293 370.31 96.5365 369.751 93.5672C369.055 89.8614 368.346 87.0422 368.46 83.0597C368.584 78.6986 370.153 77.1164 372.754 73.6637C365.898 75.5647 358.244 80.5368 351.125 80.527C341.654 80.5138 343.409 70.7859 345.298 64.3886C341.837 64.9726 336.466 66.4161 334.77 62.0878C332.785 57.0271 337.736 51.1845 340.773 47.8107C336.792 47.4235 332.994 48.3843 331.543 43.5865C330.533 40.2466 331.773 36.3044 334.071 33.7844C340.089 27.1846 349.446 25.8653 357.692 24.9344C362.251 24.4201 366.899 23.9914 371.474 24.4206C375.908 24.8366 379.381 26.703 383.428 28.5775C387.659 30.5377 390.534 33.2711 393.359 37.012C394.686 38.7697 395.793 40.4739 396.537 42.5624C396.9 43.5813 397.24 48.619 398.04 49.1955C399.223 50.0505 406.471 47.076 408.537 47.1594C410.818 47.2514 412.235 47.9614 413.583 49.8744C414.313 50.9118 415.058 54.7453 416.424 55.1636C417.085 55.3655 421.205 53.6688 422.174 53.521C423.582 53.3058 424.942 52.9968 426.386 52.8582C430.867 52.4266 435.525 52.3058 439.872 53.6797C448.549 56.4201 453.491 64.2839 451.223 73.5481C450.8 75.2747 449.618 76.5353 449.099 78.1721C448.403 80.3728 448.657 82.6759 448.134 84.9514C447.033 89.7452 444.988 92.592 440.847 95.0838C454.162 105.672 439.72 129.735 425.964 117.594C422.055 123.069 413.544 126.987 407.159 128.51C398.555 130.564 390.566 129.36 385.965 121.431C385.443 122.791 384.596 124.256 384.338 125.674C384.136 126.201 383.934 126.727 383.732 127.254C383.131 128.052 383.42 128.514 384.599 128.637C385.403 130.907 385.993 131.138 384.808 133.885C393.601 130.843 402.868 138.753 408.94 144.616C413.029 148.565 415.204 154.36 417.766 159.304C420.77 165.103 423.057 171.163 425.832 177.057C428.325 182.354 429.864 188.109 432.586 193.289C435.161 198.19 439.326 201.725 443.648 204.866C447.656 207.779 451.678 210.691 456.808 211.902C462.652 213.282 469.175 211.329 474.887 209.864Z" fill="black"/>
<path fill-rule="evenodd" clip-rule="evenodd" d="M83.0273 236.615C83.4796 229.418 94.3716 222.866 99.3095 218.461C105.713 212.748 112.142 206.979 119.173 201.934C136.782 189.296 155.08 177.917 174.572 168.476C177.555 167.031 199.295 156.725 199.894 162.55C200.252 166.035 191.402 167.779 188.983 168.822C183.678 171.11 178.646 173.986 173.521 176.604C158.139 184.46 144.189 195.565 129.95 205.607C121.451 211.601 113.502 218.376 105.086 224.455C100.601 227.695 96.6581 231.546 92.3261 234.906C89.2363 237.302 84.5107 242.36 83.0273 236.615Z" fill="black"/>
<path fill-rule="evenodd" clip-rule="evenodd" d="M450.906 283.35C453.314 282.375 456.089 292.139 457.14 293.881C459.144 297.202 461.337 300.635 463.769 303.644C469.388 310.594 475.092 317.257 481.718 323.286C488.069 329.066 495.242 334.538 502.861 338.587C505.055 339.754 521.496 344.979 515.301 350.196C513.384 351.809 507.387 350.281 505.332 349.639C501.779 348.528 497.845 346.677 494.594 344.881C487.773 341.111 481.394 336.302 475.928 330.744C469.68 324.389 464.57 317.419 459.542 310.083C455.03 303.502 448.125 291.465 450.906 283.35Z" fill="black"/>
<path fill-rule="evenodd" clip-rule="evenodd" d="M176.275 201.72C175.325 203.796 173.685 203.231 171.911 203.892C169.154 204.919 166.534 206.797 163.981 208.262C159.076 211.077 154.219 214.006 149.419 216.996C140.501 222.551 131.885 228.565 123.926 235.43C118.91 230.392 144.024 212.643 147.321 210.523C152.251 207.354 157.368 204.085 162.656 201.537C166.805 199.538 176.091 194.105 176.275 201.72Z" fill="black"/>
<path fill-rule="evenodd" clip-rule="evenodd" d="M482.467 297.38C485.797 296.693 486.755 301.899 488.14 303.525C490.341 306.109 493.147 308.32 495.776 310.375C498.977 312.876 501.86 315.454 505.222 317.742C507.957 319.603 513.981 322.505 513.463 326.596C512.279 335.949 495.426 322.491 492.59 319.692C488.547 315.703 476.723 303.322 482.467 297.38Z" fill="black"/>
<path fill-rule="evenodd" clip-rule="evenodd" d="M520.52 317.914C518.227 325.898 502.806 311.643 503.978 305.903C505.042 300.696 510.614 306.085 512.961 308.062C516.197 310.789 520.366 313.485 520.52 317.914Z" fill="black"/>
<path fill-rule="evenodd" clip-rule="evenodd" d="M162.739 231.084C159.135 230.058 150.214 234.576 155.618 227.682C157.162 225.713 158.904 223.834 161.058 224.885C163.237 225.948 164.346 229.277 162.739 231.084Z" fill="black"/>
<path fill-rule="evenodd" clip-rule="evenodd" d="M387.672 132.921C386.82 133.276 385.968 133.63 385.117 133.984C385.422 133.133 385.728 132.283 386.034 131.432C386.355 132.288 386.9 132.784 387.672 132.921Z" fill="black"/>
<path fill-rule="evenodd" clip-rule="evenodd" d="M207.568 41.6035C205.601 41.9551 203.816 42.0182 201.82 41.9563C203.767 41.6169 205.601 41.6233 207.568 41.6035Z" fill="black"/>
<path fill-rule="evenodd" clip-rule="evenodd" d="M66.0078 378.346C66.0717 380.049 66.1349 381.751 66.1975 383.451C66.1336 381.746 66.071 380.046 66.0078 378.346Z" fill="black"/>
<path fill-rule="evenodd" clip-rule="evenodd" d="M451.761 71.4583C451.725 69.9687 451.689 68.4791 451.652 66.9922C452.253 68.4731 452.126 69.9633 451.761 71.4583Z" fill="black"/>
<path fill-rule="evenodd" clip-rule="evenodd" d="M214.596 41.3227C213.105 41.3298 211.615 41.3374 210.125 41.3444C211.833 40.8398 213.369 40.8321 214.596 41.3227Z" fill="black"/>
<path fill-rule="evenodd" clip-rule="evenodd" d="M224.574 209.271C224.519 210.548 224.464 211.824 224.41 213.099C224.465 211.822 224.519 210.547 224.574 209.271Z" fill="black"/>
<path fill-rule="evenodd" clip-rule="evenodd" d="M258.66 40.0138L254.828 39.7388C256.106 39.8307 257.383 39.9219 258.66 40.0138Z" fill="black"/>
<path fill-rule="evenodd" clip-rule="evenodd" d="M95.1602 313.673C93.8744 313.701 92.5626 314.145 91.3281 313.353C92.6051 313.46 93.8832 313.566 95.1602 313.673Z" fill="black"/>
<path fill-rule="evenodd" clip-rule="evenodd" d="M608.652 200.446C607.413 201.266 606.098 200.626 604.82 200.721C606.098 200.629 607.375 200.537 608.652 200.446Z" fill="black"/>
<path fill-rule="evenodd" clip-rule="evenodd" d="M354.465 25.599C353.239 26.4342 351.92 25.9384 350.633 25.8976C351.911 25.7981 353.188 25.6985 354.465 25.599Z" fill="black"/>
<path fill-rule="evenodd" clip-rule="evenodd" d="M148.17 320.139C147.105 320.15 146.04 320.16 144.977 320.171C146.038 319.581 147.103 319.689 148.17 320.139Z" fill="black"/>
<path fill-rule="evenodd" clip-rule="evenodd" d="M337.219 47.5712C337.859 47.5456 338.5 47.5201 339.135 47.494C338.492 47.5195 337.856 47.545 337.219 47.5712Z" fill="black"/>
<path fill-rule="evenodd" clip-rule="evenodd" d="M240.141 39.7625C239.289 39.8824 238.436 40.0024 237.586 40.1217C238.359 39.1838 239.292 39.9054 240.141 39.7625Z" fill="black"/>
<path fill-rule="evenodd" clip-rule="evenodd" d="M90.6914 407.437C91.3318 407.396 91.9729 407.356 92.6074 407.315C91.9652 407.357 91.3283 407.397 90.6914 407.437Z" fill="black"/>
<path fill-rule="evenodd" clip-rule="evenodd" d="M488.586 206.998C487.734 207.024 486.883 207.051 486.031 207.078C486.884 207.051 487.735 207.024 488.586 206.998Z" fill="black"/>
<path fill-rule="evenodd" clip-rule="evenodd" d="M384.821 96.9792C384.807 96.3402 384.794 95.7006 384.781 95.0651C384.794 95.7052 384.807 96.3422 384.821 96.9792Z" fill="black"/>
<path fill-rule="evenodd" clip-rule="evenodd" d="M370.185 97.6172C370.134 98.4687 370.084 99.3201 370.035 100.169C370.086 99.3172 370.135 98.4669 370.185 97.6172Z" fill="black"/>
<path fill-rule="evenodd" clip-rule="evenodd" d="M229.281 368.504C229.922 368.473 230.562 368.441 231.197 368.41C230.555 368.441 229.918 368.473 229.281 368.504Z" fill="black"/>
<path fill-rule="evenodd" clip-rule="evenodd" d="M49.1797 104.961C49.8207 104.957 50.4612 104.952 51.0957 104.947C50.4529 104.952 49.816 104.957 49.1797 104.961Z" fill="black"/>
<path fill-rule="evenodd" clip-rule="evenodd" d="M521.156 206.014C520.304 206.013 519.453 206.012 518.602 206.01C519.454 205.586 520.306 205.135 521.156 206.014Z" fill="black"/>
<path fill-rule="evenodd" clip-rule="evenodd" d="M520.066 317.734C520.036 316.883 520.006 316.031 519.977 315.182C520.511 316.018 520.59 316.866 520.066 317.734Z" fill="black"/>
<path fill-rule="evenodd" clip-rule="evenodd" d="M176.623 201.615C176.601 200.763 176.58 199.912 176.559 199.062C176.581 199.914 176.602 200.764 176.623 201.615Z" fill="black"/>
<path fill-rule="evenodd" clip-rule="evenodd" d="M127.094 90.3093C127.521 90.2895 127.949 90.2698 128.371 90.2506C127.941 90.2698 127.518 90.2895 127.094 90.3093Z" fill="black"/>
<path fill-rule="evenodd" clip-rule="evenodd" d="M515.406 205.53C514.558 206.145 513.705 206.148 512.852 205.544C513.704 205.54 514.555 205.535 515.406 205.53Z" fill="black"/>
<path fill-rule="evenodd" clip-rule="evenodd" d="M157.752 318.372C157.432 319.339 156.551 318.923 155.836 318.914C156.475 318.734 157.114 318.553 157.752 318.372Z" fill="black"/>
<path fill-rule="evenodd" clip-rule="evenodd" d="M339.773 65.4377C340.201 65.4102 340.628 65.3828 341.051 65.3566C340.622 65.3847 340.198 65.4109 339.773 65.4377Z" fill="black"/>
<path fill-rule="evenodd" clip-rule="evenodd" d="M222.258 40.3558C221.406 40.4617 220.554 40.5676 219.703 40.6729C220.555 40.567 221.407 40.4617 222.258 40.3558Z" fill="black"/>
<path fill-rule="evenodd" clip-rule="evenodd" d="M536.484 243.381C536.912 243.396 537.339 243.412 537.762 243.429C537.333 243.415 536.908 243.397 536.484 243.381Z" fill="black"/>
<path fill-rule="evenodd" clip-rule="evenodd" d="M227.125 237.344C227.075 237.983 227.024 238.622 226.973 239.258C227.022 238.617 227.074 237.98 227.125 237.344Z" fill="black"/>
<path fill-rule="evenodd" clip-rule="evenodd" d="M351.906 111.321C352.334 111.33 352.762 111.34 353.184 111.348C352.755 111.338 352.33 111.33 351.906 111.321Z" fill="black"/>
<path fill-rule="evenodd" clip-rule="evenodd" d="M154.559 358.843C154.986 358.872 155.414 358.902 155.836 358.931C155.407 358.901 154.982 358.871 154.559 358.843Z" fill="black"/>
<path fill-rule="evenodd" clip-rule="evenodd" d="M496.25 206.614C495.398 206.612 494.546 206.609 493.695 206.607C494.549 205.944 495.4 206.155 496.25 206.614Z" fill="black"/>
<path fill-rule="evenodd" clip-rule="evenodd" d="M579.914 236.432C580.341 236.402 580.768 236.371 581.191 236.341C580.763 236.371 580.338 236.402 579.914 236.432Z" fill="black"/>
<path fill-rule="evenodd" clip-rule="evenodd" d="M592.688 388.701C591.836 388.816 590.984 388.932 590.133 389.047C590.985 388.931 591.836 388.816 592.688 388.701Z" fill="black"/>
<path fill-rule="evenodd" clip-rule="evenodd" d="M335.069 58.6979C335.013 59.3372 334.957 59.976 334.898 60.612C334.955 59.9716 335.012 59.335 335.069 58.6979Z" fill="black"/>
<path fill-rule="evenodd" clip-rule="evenodd" d="M261.855 236.727C259.262 238.17 256.461 239.379 253.907 240.853C252.103 241.894 250.635 244.339 249.082 242.296C252.504 240.625 258.047 236.369 261.855 236.727Z" fill="black"/>
<path fill-rule="evenodd" clip-rule="evenodd" d="M97.5637 365.586C97.04 364.092 97.0471 362.602 97.6148 361.12C97.5982 362.61 97.5803 364.098 97.5637 365.586Z" fill="black"/>
<path fill-rule="evenodd" clip-rule="evenodd" d="M100.771 386.641C100.815 387.491 100.859 388.342 100.902 389.193C100.76 389.203 99.6549 386.695 100.771 386.641Z" fill="black"/>
<path fill-rule="evenodd" clip-rule="evenodd" d="M121.562 75.9245C121.631 74.8602 121.7 73.7959 121.768 72.7344C121.7 73.7993 121.631 74.8619 121.562 75.9245Z" fill="black"/>
<path fill-rule="evenodd" clip-rule="evenodd" d="M424.719 83.9157C423.864 83.9042 423.011 83.8934 422.164 83.8838C423.02 83.8953 423.869 83.9055 424.719 83.9157Z" fill="black"/>
<path fill-rule="evenodd" clip-rule="evenodd" d="M234.391 355.824C235.455 355.739 236.52 355.654 237.584 355.57C236.52 355.655 235.455 355.739 234.391 355.824Z" fill="black"/>
<path fill-rule="evenodd" clip-rule="evenodd" d="M74.8984 393.659C74.9942 394.51 75.0907 395.362 75.1865 396.211C75.09 395.36 74.9936 394.509 74.8984 393.659Z" fill="black"/>
<path fill-rule="evenodd" clip-rule="evenodd" d="M193.516 353.933C194.367 353.832 195.219 353.733 196.07 353.633C195.219 353.733 194.367 353.833 193.516 353.933Z" fill="black"/>
<path fill-rule="evenodd" clip-rule="evenodd" d="M185.852 352.422C186.694 352.623 187.654 351.709 188.406 352.767C187.554 352.651 186.703 352.536 185.852 352.422Z" fill="black"/>
<path fill-rule="evenodd" clip-rule="evenodd" d="M74.4815 376.432C74.4317 377.072 74.3812 377.711 74.332 378.346C74.3831 377.706 74.4323 377.069 74.4815 376.432Z" fill="black"/>
<path fill-rule="evenodd" clip-rule="evenodd" d="M92.8945 100.169C92.9169 100.808 92.9392 101.447 92.9629 102.083C92.9412 101.443 92.9175 100.806 92.8945 100.169Z" fill="black"/>
<path fill-rule="evenodd" clip-rule="evenodd" d="M83.2148 384.089C83.3036 383.45 83.3924 382.811 83.4812 382.175C83.3918 382.814 83.3036 383.451 83.2148 384.089Z" fill="black"/>
<path fill-rule="evenodd" clip-rule="evenodd" d="M74.3125 389.831C74.3738 390.47 74.4345 391.108 74.4958 391.745C74.4345 391.106 74.3738 390.469 74.3125 389.831Z" fill="black"/>
<path fill-rule="evenodd" clip-rule="evenodd" d="M539.16 230.964C539.704 231.6 539.674 232.239 539.173 232.878C539.169 232.237 539.165 231.601 539.16 230.964Z" fill="black"/>
<path fill-rule="evenodd" clip-rule="evenodd" d="M343.605 228.79C343.178 228.751 342.751 228.711 342.328 228.671C342.757 228.71 343.181 228.75 343.605 228.79Z" fill="black"/>
<path fill-rule="evenodd" clip-rule="evenodd" d="M492.65 241.122C487.922 241.808 492.28 235.272 493.562 234.366C495.053 233.312 496.631 232.893 498.075 231.627C498.979 230.835 500.004 228.925 501.391 229.056C504.451 229.344 503.072 233.727 502.159 235.607C500.371 239.286 496.631 241.184 492.65 241.122Z" fill="black"/>
<path fill-rule="evenodd" clip-rule="evenodd" d="M339.199 165.885C336.415 164.899 322.344 162.228 328.576 156.535C332.693 152.774 344.132 162.388 339.199 165.885Z" fill="black"/>
<path fill-rule="evenodd" clip-rule="evenodd" d="M274.639 210.463C274.204 205.489 287.71 199.981 285.97 206.515C285.566 208.034 281.739 211.783 280.694 212.776C277.898 215.434 274.641 214.855 274.639 210.463Z" fill="black"/>
<path fill-rule="evenodd" clip-rule="evenodd" d="M148.172 73.0087C149.087 69.7856 150.095 68.2709 153.293 67.0257C155.337 66.2287 158.723 65.5046 159.019 68.8298C159.239 71.2839 155.773 73.6709 154.096 74.7153C151.097 76.5842 149.445 76.485 148.172 73.0087Z" fill="black"/>
<path fill-rule="evenodd" clip-rule="evenodd" d="M330.822 191.636C330.855 195.019 329.671 198.995 326.689 201.027C324.354 202.617 319.046 203.365 321.061 198.758C321.674 197.355 323.406 196.66 324.466 195.62C326.208 193.908 326.352 192.054 327.327 190.451C327.66 189.902 327.133 188.606 328.18 188.286C329.929 187.752 330.944 190.409 330.822 191.636Z" fill="black"/>
<path fill-rule="evenodd" clip-rule="evenodd" d="M394.18 163.971C396.587 163.967 398.862 164.832 397.462 167.576C396.4 169.657 391.79 171.253 389.704 171.545C387.027 171.919 384.036 171.092 385.505 167.703C386.729 164.88 391.528 164.626 394.18 163.971Z" fill="black"/>
<path fill-rule="evenodd" clip-rule="evenodd" d="M413.859 208.635C413.76 214.837 402.572 208.356 403.724 203.703C405.175 197.841 412.963 205.897 413.859 208.635Z" fill="black"/>
<path fill-rule="evenodd" clip-rule="evenodd" d="M285.48 99.5242C285.48 104.792 274.366 98.0457 275.324 93.4378C276.603 87.2955 285.712 95.5454 285.48 99.5242Z" fill="black"/>
<path fill-rule="evenodd" clip-rule="evenodd" d="M274.52 77.2005C269.825 73.451 280.59 63.804 283.682 68.0518C286.481 71.899 277.354 76.9711 274.52 77.2005Z" fill="black"/>
<path fill-rule="evenodd" clip-rule="evenodd" d="M277.766 156.315C275.193 156.084 272.227 156.11 269.963 154.636C268.309 153.561 265.44 149.408 267.958 147.615C269.508 146.511 273.421 149.654 275.009 150.48C277.718 151.888 279.519 152.765 277.766 156.315Z" fill="black"/>
<path fill-rule="evenodd" clip-rule="evenodd" d="M386.685 191.406C380.623 191.485 378.706 184.166 386.011 185.11C387.952 185.361 392.739 185.827 392.785 188.382C392.838 191.329 388.977 191.028 386.685 191.406Z" fill="black"/>
<path fill-rule="evenodd" clip-rule="evenodd" d="M325.084 123.979C324.648 126.758 323.896 128.802 321.454 130.427C319.355 131.823 315.233 133.681 315.518 129.511C315.687 127.029 323.963 117.743 325.084 123.979Z" fill="black"/>
<path fill-rule="evenodd" clip-rule="evenodd" d="M207.054 65.0781C209.466 66.2324 212.616 78.5266 209.382 79.6074C204.24 81.3264 205.406 67.2545 207.054 65.0781Z" fill="black"/>
<path fill-rule="evenodd" clip-rule="evenodd" d="M311.874 180.56C308.127 176.312 317.947 167.866 320.311 172.187C322.263 175.756 314.152 179.051 311.874 180.56Z" fill="black"/>
<path fill-rule="evenodd" clip-rule="evenodd" d="M244.622 67.9303C245.283 61.4202 252.776 71.0329 252.247 74.1631C251.32 79.6448 244.276 70.8459 244.622 67.9303Z" fill="black"/>
<path fill-rule="evenodd" clip-rule="evenodd" d="M250.359 229.84C250.32 234.185 241.781 229.68 242.776 225.093C243.9 219.911 250.296 227.417 250.359 229.84Z" fill="black"/>
<path fill-rule="evenodd" clip-rule="evenodd" d="M422.801 232.886C425.332 225.327 426.812 230.469 427.523 235.24C427.751 236.763 428.779 240.98 426.133 240.495C423.673 240.045 423 234.485 422.801 232.886Z" fill="black"/>
<path fill-rule="evenodd" clip-rule="evenodd" d="M453.761 237.344C455.745 238.701 459.711 248.854 455.255 247.412C451.856 246.313 451.151 239.346 453.761 237.344Z" fill="black"/>
<path fill-rule="evenodd" clip-rule="evenodd" d="M353.655 195.872C353.88 198.599 354.25 199.532 355.703 201.778C356.951 203.705 357.765 204.605 356.006 206.719C353.921 205.129 351.402 203.894 350.779 201.244C350.297 199.197 350.942 195.957 353.655 195.872Z" fill="black"/>
<path fill-rule="evenodd" clip-rule="evenodd" d="M294.287 167.8C292.817 166.634 287.697 160.415 288.846 158.159C290.266 155.373 297.404 163.517 294.287 167.8Z" fill="black"/>
<path fill-rule="evenodd" clip-rule="evenodd" d="M390.734 213.099C392.321 214.504 391.589 217.473 391.861 219.29C392.136 221.132 393.67 223.59 392.06 225.221C388.099 222.959 388.233 216.329 390.734 213.099Z" fill="black"/>
<path fill-rule="evenodd" clip-rule="evenodd" d="M254.828 189.475C254.802 187.283 260.028 183.294 261.114 185.856C262.046 188.055 256.238 194.639 254.828 189.475Z" fill="black"/>
</svg>
